<?xml version="1.0" encoding="UTF-8" standalone="no"?>
<svg
   version="1.1"
   id="Calque_1"
   x="0px"
   y="0px"
   viewBox="0 0 318.1502 282.03732"
   xml:space="preserve"
   width="318.15021"
   height="282.03732"
   xmlns:xlink="http://www.w3.org/1999/xlink"
   xmlns="http://www.w3.org/2000/svg"
   xmlns:svg="http://www.w3.org/2000/svg"
   xmlns:rdf="http://www.w3.org/1999/02/22-rdf-syntax-ns#"
   xmlns:cc="http://creativecommons.org/ns#"
   xmlns:dc="http://purl.org/dc/elements/1.1/"><metadata
   id="metadata443"><rdf:RDF><cc:Work
       rdf:about=""><dc:format>image/svg+xml</dc:format><dc:type
         rdf:resource="http://purl.org/dc/dcmitype/StillImage" /></cc:Work></rdf:RDF></metadata><defs
   id="defs441"><clipPath
     id="clipPath3098"
     clipPathUnits="userSpaceOnUse"><rect
       y="1899.8961"
       x="2152.532"
       height="106.27486"
       width="98.816971"
       id="rect3100"
       style="fill:#ffffff" /></clipPath><clipPath
     id="clipPath3172"
     clipPathUnits="userSpaceOnUse"><rect
       y="1906.4218"
       x="2150.6675"
       height="169.66689"
       width="165.93794"
       id="rect3174"
       style="fill:#ffffff" /></clipPath><clipPath
     id="SVGID_16_-7"><use
       xlink:href="#SVGID_15_"
       style="overflow:visible"
       id="use291-9"
       x="0"
       y="0"
       width="100%"
       height="100%" /></clipPath><clipPath
     id="clipPath2873"><use
       xlink:href="#SVGID_15_"
       style="overflow:visible"
       id="use2871"
       x="0"
       y="0"
       width="100%"
       height="100%" /></clipPath><clipPath
     id="clipPath2877"><use
       xlink:href="#SVGID_15_"
       style="overflow:visible"
       id="use2875"
       x="0"
       y="0"
       width="100%"
       height="100%" /></clipPath><clipPath
     id="clipPath2881"><use
       xlink:href="#SVGID_15_"
       style="overflow:visible"
       id="use2879"
       x="0"
       y="0"
       width="100%"
       height="100%" /></clipPath><clipPath
     id="clipPath2885"><use
       xlink:href="#SVGID_15_"
       style="overflow:visible"
       id="use2883"
       x="0"
       y="0"
       width="100%"
       height="100%" /></clipPath><clipPath
     id="SVGID_18_-3"><use
       xlink:href="#SVGID_17_"
       style="overflow:visible"
       id="use309-8"
       x="0"
       y="0"
       width="100%"
       height="100%" /></clipPath><clipPath
     id="clipPath2891"><use
       xlink:href="#SVGID_17_"
       style="overflow:visible"
       id="use2889"
       x="0"
       y="0"
       width="100%"
       height="100%" /></clipPath><clipPath
     id="clipPath2895"><use
       xlink:href="#SVGID_17_"
       style="overflow:visible"
       id="use2893"
       x="0"
       y="0"
       width="100%"
       height="100%" /></clipPath><clipPath
     id="clipPath2899"><use
       xlink:href="#SVGID_17_"
       style="overflow:visible"
       id="use2897"
       x="0"
       y="0"
       width="100%"
       height="100%" /></clipPath><clipPath
     id="clipPath2903"><use
       xlink:href="#SVGID_17_"
       style="overflow:visible"
       id="use2901"
       x="0"
       y="0"
       width="100%"
       height="100%" /></clipPath><clipPath
     id="clipPath2907"><use
       xlink:href="#SVGID_17_"
       style="overflow:visible"
       id="use2905"
       x="0"
       y="0"
       width="100%"
       height="100%" /></clipPath><clipPath
     id="SVGID_20_-0"><use
       xlink:href="#SVGID_19_"
       style="overflow:visible"
       id="use329-2"
       x="0"
       y="0"
       width="100%"
       height="100%" /></clipPath><clipPath
     id="clipPath2913"><use
       xlink:href="#SVGID_19_"
       style="overflow:visible"
       id="use2911"
       x="0"
       y="0"
       width="100%"
       height="100%" /></clipPath><clipPath
     id="clipPath2917"><use
       xlink:href="#SVGID_19_"
       style="overflow:visible"
       id="use2915"
       x="0"
       y="0"
       width="100%"
       height="100%" /></clipPath><clipPath
     id="clipPath2921"><use
       xlink:href="#SVGID_19_"
       style="overflow:visible"
       id="use2919"
       x="0"
       y="0"
       width="100%"
       height="100%" /></clipPath><clipPath
     id="clipPath2925"><use
       xlink:href="#SVGID_19_"
       style="overflow:visible"
       id="use2923"
       x="0"
       y="0"
       width="100%"
       height="100%" /></clipPath><clipPath
     id="clipPath2929"><use
       xlink:href="#SVGID_19_"
       style="overflow:visible"
       id="use2927"
       x="0"
       y="0"
       width="100%"
       height="100%" /></clipPath><clipPath
     id="clipPath2933"><use
       xlink:href="#SVGID_19_"
       style="overflow:visible"
       id="use2931"
       x="0"
       y="0"
       width="100%"
       height="100%" /></clipPath><clipPath
     id="SVGID_22_-4"><use
       xlink:href="#SVGID_21_"
       style="overflow:visible"
       id="use353-8"
       x="0"
       y="0"
       width="100%"
       height="100%" /></clipPath><clipPath
     id="clipPath2939"><use
       xlink:href="#SVGID_21_"
       style="overflow:visible"
       id="use2937"
       x="0"
       y="0"
       width="100%"
       height="100%" /></clipPath><clipPath
     id="SVGID_24_-3"><use
       xlink:href="#SVGID_23_"
       style="overflow:visible"
       id="use367-9"
       x="0"
       y="0"
       width="100%"
       height="100%" /></clipPath><clipPath
     id="SVGID_26_-0"><use
       xlink:href="#SVGID_25_"
       style="overflow:visible"
       id="use377-5"
       x="0"
       y="0"
       width="100%"
       height="100%" /></clipPath><clipPath
     id="clipPath2947"><use
       xlink:href="#SVGID_25_"
       style="overflow:visible"
       id="use2945"
       x="0"
       y="0"
       width="100%"
       height="100%" /></clipPath><clipPath
     id="clipPath2951"><use
       xlink:href="#SVGID_25_"
       style="overflow:visible"
       id="use2949"
       x="0"
       y="0"
       width="100%"
       height="100%" /></clipPath><clipPath
     id="clipPath2955"><use
       xlink:href="#SVGID_25_"
       style="overflow:visible"
       id="use2953"
       x="0"
       y="0"
       width="100%"
       height="100%" /></clipPath><clipPath
     id="clipPath2959"><use
       xlink:href="#SVGID_25_"
       style="overflow:visible"
       id="use2957"
       x="0"
       y="0"
       width="100%"
       height="100%" /></clipPath><clipPath
     id="clipPath2963"><use
       xlink:href="#SVGID_25_"
       style="overflow:visible"
       id="use2961"
       x="0"
       y="0"
       width="100%"
       height="100%" /></clipPath><clipPath
     id="SVGID_28_-2"><use
       xlink:href="#SVGID_27_"
       style="overflow:visible"
       id="use397-2"
       x="0"
       y="0"
       width="100%"
       height="100%" /></clipPath><clipPath
     id="clipPath2969"><use
       xlink:href="#SVGID_27_"
       style="overflow:visible"
       id="use2967"
       x="0"
       y="0"
       width="100%"
       height="100%" /></clipPath><clipPath
     clipPathUnits="userSpaceOnUse"
     id="clipPath3172-7"><rect
       style="fill:#ffffff"
       id="rect3174-3"
       width="165.93794"
       height="169.66689"
       x="2150.6675"
       y="1906.4218" /></clipPath><path
     id="path2790-5"
     class="st1"
     d="m 203.29,282.35 c -1.6,-0.83 -3.19,-1.67 -4.79,-2.5 1.47,0.77 3.14,1.04 4.89,0.79 2.1,-0.3 4.31,-1.34 6.41,-3.16 l 4.79,2.5 c -2.1,1.82 -4.31,2.86 -6.41,3.16 -1.75,0.25 -3.43,-0.02 -4.89,-0.79 z"
     style="enable-background:new" /><path
     id="path2810-8"
     class="st1"
     d="m 211.78,250.5 4.79,2.5 c 1.84,0.96 3.35,2.7 4.29,5.17 2.57,6.79 -0.23,16.56 -6.27,21.82 l -4.79,-2.5 c 6.04,-5.26 8.84,-15.02 6.27,-21.82 -0.94,-2.48 -2.45,-4.21 -4.29,-5.17 z"
     style="enable-background:new" /><path
     id="path2832-3"
     class="st1"
     d="m 173.76,334.42 c -1.6,-0.83 -3.19,-1.67 -4.79,-2.5 -7.14,-3.73 -12.08,-13.9 -12.79,-27.38 -1.24,-23.7 11.01,-48.63 27.41,-62.36 2.14,-1.79 4.24,-3.2 6.28,-4.26 l 4.79,2.5 c -2.04,1.06 -4.14,2.47 -6.28,4.26 -16.4,13.73 -28.65,38.66 -27.41,62.36 0.72,13.48 5.65,23.65 12.79,27.38 z"
     style="enable-background:new" /><path
     id="path2856-6"
     class="st1"
     d="m 240.39,118.76 c -1.6,-0.83 -3.19,-1.67 -4.79,-2.5 0.6,0.31 1.27,0.5 1.98,0.55 0.35,0.02 0.7,0 1.05,-0.04 3.54,-0.5 6.87,-4.46 7.72,-9.43 l 4.79,2.5 c -0.85,4.97 -4.18,8.93 -7.72,9.43 -0.35,0.05 -0.7,0.06 -1.05,0.04 -0.72,-0.04 -1.38,-0.23 -1.98,-0.55 z"
     style="enable-background:new" /><path
     id="path2874-5"
     class="st1"
     d="m 212.62,162.15 -4.79,-2.5 c -0.01,-0.22 -0.03,-0.44 -0.05,-0.67 l 4.79,2.5 c 0.02,0.24 0.04,0.45 0.05,0.67 z"
     style="enable-background:new" /><path
     id="path2886-5"
     class="st1"
     d="m 194.66,240.42 -4.79,-2.5 c -3.86,-3.43 -6.41,-9.74 -6.87,-18.55 -1.09,-20.61 9.6,-47 23.87,-58.95 0.33,-0.27 0.65,-0.52 0.96,-0.78 l 4.79,2.5 c -0.31,0.25 -0.64,0.5 -0.96,0.78 -14.27,11.94 -24.96,38.34 -23.87,58.95 0.46,8.81 3,15.12 6.87,18.55 z"
     style="enable-background:new" /><path
     id="path2908-8"
     class="st1"
     d="m 212.57,161.49 -4.79,-2.5 C 206.1,127 222.7,86.02 244.84,67.48 l 4.79,2.5 c -22.14,18.54 -38.74,59.51 -37.06,91.51 z"
     style="enable-background:new" /></defs><style
   type="text/css"
   id="style10">
	.st0{fill:#4C8DCB;}
	.st1{enable-background:new    ;}
	.st2{fill:#CACFD2;}
	.st3{fill:#D5DFF3;}
	.st4{fill:#FFFFFF;}
	.st5{clip-path:url(#SVGID_2_);fill:#006893;}
	.st6{clip-path:url(#SVGID_2_);fill:#CACFD2;}
	.st7{clip-path:url(#SVGID_4_);fill:#CACFD2;}
	.st8{clip-path:url(#SVGID_6_);fill:#CACFD2;}
	.st9{clip-path:url(#SVGID_8_);fill:#006893;}
	.st10{clip-path:url(#SVGID_8_);fill:#CACFD2;}
	.st11{clip-path:url(#SVGID_10_);fill:#CACFD2;}
	.st12{clip-path:url(#SVGID_12_);fill:#CACFD2;}
	.st13{clip-path:url(#SVGID_14_);}
	.st14{fill:#00658F;}
	.st15{clip-path:url(#SVGID_14_);fill:#CACFD2;}
	.st16{fill:#0074A4;}
	.st17{fill:#82D0F5;}
	.st18{clip-path:url(#SVGID_16_);fill:#006893;}
	.st19{clip-path:url(#SVGID_16_);fill:#CACFD2;}
	.st20{clip-path:url(#SVGID_18_);fill:#CACFD2;}
	.st21{clip-path:url(#SVGID_20_);fill:#CACFD2;}
	.st22{clip-path:url(#SVGID_22_);fill:#006893;}
	.st23{clip-path:url(#SVGID_22_);fill:#CACFD2;}
	.st24{clip-path:url(#SVGID_24_);fill:#CACFD2;}
	.st25{clip-path:url(#SVGID_26_);fill:#CACFD2;}
	.st26{clip-path:url(#SVGID_28_);}
	.st27{clip-path:url(#SVGID_28_);fill:#CACFD2;}
</style><g
   id="g232"
   transform="translate(-122.92994,-58.907044)"><path
     style="fill:#cacfd2"
     id="path226"
     d="m 356.71,124.49 c 0.52,-0.3 1.05,-0.58 1.57,-0.82 0.12,-0.06 0.25,-0.11 0.37,-0.17 0.33,-0.15 0.66,-0.29 0.98,-0.42 0.16,-0.06 0.31,-0.12 0.47,-0.18 0.3,-0.11 0.6,-0.21 0.9,-0.31 0.16,-0.05 0.32,-0.1 0.47,-0.15 0.31,-0.09 0.62,-0.17 0.93,-0.24 0.14,-0.03 0.27,-0.07 0.41,-0.1 0.44,-0.09 0.88,-0.18 1.32,-0.24 0.54,-0.08 1.08,-0.12 1.61,-0.15 0.17,-0.01 0.34,-0.01 0.51,-0.01 0.37,-0.01 0.73,-0.01 1.09,0.01 0.19,0.01 0.38,0.02 0.57,0.04 0.34,0.03 0.67,0.06 1.01,0.11 0.19,0.03 0.37,0.05 0.56,0.08 0.35,0.06 0.7,0.13 1.04,0.21 0.15,0.04 0.3,0.07 0.45,0.1 0.53,0.14 1.04,0.3 1.55,0.49 0.1,0.04 0.2,0.08 0.3,0.12 0.41,0.16 0.81,0.33 1.2,0.52 0.3,0.14 0.6,0.28 0.89,0.44 -1.52,-0.83 -3.04,-1.65 -4.56,-2.48 -0.22,-0.12 -0.45,-0.24 -0.68,-0.35 -0.07,-0.03 -0.14,-0.06 -0.21,-0.09 -0.39,-0.19 -0.79,-0.36 -1.2,-0.51 -0.1,-0.04 -0.21,-0.09 -0.31,-0.12 -0.51,-0.19 -1.02,-0.35 -1.55,-0.48 -0.04,-0.01 -0.07,-0.02 -0.11,-0.03 -0.12,-0.03 -0.24,-0.05 -0.35,-0.07 -0.34,-0.08 -0.69,-0.15 -1.04,-0.21 -0.19,-0.03 -0.37,-0.06 -0.56,-0.08 -0.33,-0.05 -0.67,-0.08 -1,-0.11 -0.19,-0.01 -0.38,-0.03 -0.57,-0.04 -0.36,-0.02 -0.72,-0.02 -1.09,-0.01 -0.17,0 -0.34,0 -0.51,0.01 -0.53,0.03 -1.07,0.07 -1.61,0.15 -0.44,0.06 -0.87,0.14 -1.32,0.24 -0.13,0.03 -0.27,0.07 -0.41,0.1 -0.31,0.07 -0.62,0.15 -0.93,0.24 -0.16,0.05 -0.32,0.1 -0.47,0.15 -0.3,0.09 -0.6,0.2 -0.9,0.31 -0.16,0.06 -0.31,0.12 -0.47,0.18 -0.33,0.13 -0.65,0.27 -0.98,0.42 -0.1,0.04 -0.2,0.08 -0.3,0.13 -0.02,0.01 -0.05,0.03 -0.07,0.04 -0.52,0.25 -1.05,0.53 -1.57,0.82 -0.13,0.07 -0.26,0.15 -0.39,0.23 -0.44,0.26 -0.87,0.54 -1.31,0.83 -0.08,0.06 -0.16,0.1 -0.24,0.15 -0.08,0.06 -0.17,0.12 -0.25,0.17 -0.47,0.33 -0.9,0.65 -1.33,0.96 -0.14,0.1 -0.27,0.2 -0.4,0.3 -0.3,0.22 -0.58,0.44 -0.86,0.65 -0.13,0.1 -0.26,0.2 -0.38,0.29 -0.36,0.28 -0.7,0.55 -1.03,0.83 -0.05,0.04 -0.09,0.08 -0.14,0.11 -0.31,0.26 -0.62,0.52 -0.91,0.79 -0.04,0.04 -0.09,0.08 -0.13,0.11 -0.05,0.04 -0.09,0.09 -0.14,0.14 -0.39,0.36 -0.77,0.71 -1.14,1.08 -0.01,0.01 -0.03,0.03 -0.04,0.04 -0.36,0.37 -0.71,0.74 -1.06,1.13 -0.04,0.04 -0.08,0.08 -0.12,0.13 -0.04,0.04 -0.07,0.08 -0.11,0.13 -0.12,0.14 -0.24,0.28 -0.36,0.43 -0.12,0.14 -0.23,0.27 -0.34,0.41 -0.12,0.15 -0.24,0.3 -0.36,0.45 -0.11,0.14 -0.23,0.29 -0.34,0.43 -0.12,0.16 -0.24,0.32 -0.36,0.48 -0.12,0.16 -0.23,0.31 -0.35,0.47 -0.11,0.15 -0.22,0.31 -0.33,0.47 -0.1,0.13 -0.19,0.26 -0.29,0.4 -0.04,0.06 -0.09,0.13 -0.14,0.2 -0.07,0.1 -0.14,0.2 -0.21,0.3 -0.15,0.22 -0.31,0.45 -0.46,0.68 -0.1,0.15 -0.2,0.29 -0.3,0.44 -0.14,0.2 -0.28,0.42 -0.42,0.63 -0.11,0.17 -0.22,0.33 -0.33,0.5 -0.24,0.37 -0.49,0.75 -0.74,1.15 l 4.56,2.48 c 0.26,-0.4 0.5,-0.79 0.75,-1.16 0.11,-0.16 0.21,-0.32 0.31,-0.48 0.14,-0.22 0.29,-0.44 0.43,-0.65 0.1,-0.15 0.2,-0.3 0.3,-0.44 0.15,-0.23 0.31,-0.45 0.46,-0.67 0.07,-0.11 0.15,-0.21 0.22,-0.32 0.14,-0.2 0.27,-0.39 0.41,-0.58 0.12,-0.16 0.23,-0.32 0.34,-0.48 0.12,-0.16 0.23,-0.31 0.35,-0.47 0.12,-0.16 0.25,-0.33 0.37,-0.49 0.11,-0.15 0.22,-0.29 0.34,-0.43 0.12,-0.15 0.24,-0.31 0.36,-0.46 0.11,-0.14 0.22,-0.27 0.34,-0.4 0.12,-0.15 0.25,-0.29 0.37,-0.44 0.07,-0.08 0.14,-0.16 0.22,-0.24 0.35,-0.39 0.7,-0.77 1.07,-1.14 0.01,-0.01 0.02,-0.02 0.03,-0.03 0.37,-0.37 0.75,-0.73 1.14,-1.09 0.09,-0.08 0.18,-0.16 0.27,-0.25 0.3,-0.27 0.6,-0.53 0.92,-0.8 0.04,-0.03 0.08,-0.07 0.12,-0.1 0.33,-0.27 0.68,-0.55 1.04,-0.83 0.12,-0.1 0.25,-0.2 0.38,-0.29 0.28,-0.21 0.56,-0.43 0.86,-0.65 0.13,-0.1 0.27,-0.2 0.4,-0.3 0.42,-0.31 0.86,-0.63 1.33,-0.96 0.16,-0.12 0.33,-0.22 0.49,-0.33 0.44,-0.3 0.87,-0.57 1.31,-0.83 0.13,-0.06 0.26,-0.14 0.39,-0.22 z"
     class="st2" /><path
     style="fill:#cacfd2"
     id="path228"
     d="m 324.57,109.28 c 0.2,0.01 0.4,0.01 0.59,0.02 0.5,0.03 1,0.08 1.5,0.14 0.11,0.01 0.22,0.02 0.33,0.04 0.59,0.09 1.17,0.21 1.75,0.35 0.18,0.05 0.36,0.1 0.54,0.15 0.34,0.1 0.69,0.2 1.02,0.32 0.2,0.07 0.39,0.15 0.58,0.22 0.32,0.12 0.63,0.26 0.93,0.4 0.31,0.14 0.62,0.28 0.92,0.45 -1.52,-0.83 -3.04,-1.65 -4.56,-2.48 -0.2,-0.11 -0.4,-0.21 -0.61,-0.32 -0.1,-0.05 -0.21,-0.09 -0.32,-0.13 -0.3,-0.14 -0.61,-0.27 -0.92,-0.39 -0.2,-0.08 -0.39,-0.15 -0.59,-0.23 -0.33,-0.12 -0.67,-0.22 -1.01,-0.31 -0.14,-0.04 -0.27,-0.09 -0.41,-0.13 -0.04,-0.01 -0.09,-0.02 -0.14,-0.03 -0.57,-0.14 -1.15,-0.26 -1.75,-0.35 -0.11,-0.02 -0.22,-0.02 -0.33,-0.04 -0.49,-0.07 -0.99,-0.11 -1.5,-0.14 -0.2,-0.01 -0.39,-0.02 -0.59,-0.02 -0.45,-0.01 -0.9,-0.01 -1.35,0 -0.19,0.01 -0.38,0.01 -0.57,0.02 -0.63,0.04 -1.27,0.09 -1.91,0.18 -0.59,0.08 -1.19,0.2 -1.79,0.33 -0.11,0.02 -0.22,0.05 -0.33,0.07 -0.58,0.13 -1.16,0.28 -1.73,0.46 -0.11,0.03 -0.23,0.07 -0.34,0.11 -0.6,0.19 -1.2,0.39 -1.81,0.62 0,0 -0.01,0 -0.01,0 -0.6,0.23 -1.2,0.49 -1.79,0.77 -0.07,0.03 -0.13,0.06 -0.2,0.09 -0.07,0.03 -0.13,0.07 -0.2,0.1 -0.21,0.1 -0.41,0.2 -0.62,0.31 -0.19,0.1 -0.39,0.2 -0.58,0.3 -0.21,0.11 -0.42,0.23 -0.62,0.34 -0.19,0.11 -0.38,0.21 -0.56,0.32 -0.21,0.12 -0.42,0.25 -0.63,0.38 -0.18,0.11 -0.37,0.23 -0.55,0.34 -0.21,0.13 -0.42,0.27 -0.62,0.41 -0.13,0.09 -0.26,0.17 -0.39,0.26 -0.04,0.02 -0.07,0.05 -0.11,0.08 -0.55,0.38 -1.09,0.79 -1.63,1.21 -0.11,0.08 -0.21,0.17 -0.32,0.25 -0.55,0.44 -1.09,0.89 -1.62,1.37 -0.01,0.01 -0.01,0.01 -0.02,0.02 0,0 0,0 -0.01,0.01 -0.27,0.24 -0.53,0.49 -0.79,0.74 -0.1,0.09 -0.2,0.18 -0.3,0.28 -0.36,0.35 -0.72,0.71 -1.07,1.08 -1.21,1.27 -2.01,2.11 -2.54,2.67 v 0 c -0.09,0.09 -0.17,0.18 -0.24,0.26 0,0 0,0 0,0.01 -0.07,0.07 -0.13,0.14 -0.19,0.21 0,0 0,0 -0.01,0.01 0,0 -0.01,0.01 -0.01,0.01 -0.07,0.08 -0.13,0.15 -0.18,0.21 -0.01,0.01 -0.02,0.02 -0.03,0.03 -0.05,0.06 -0.1,0.12 -0.13,0.17 0,0 0,0 0,0 0,0 0,0 0,0.01 -0.02,0.03 -0.04,0.06 -0.05,0.08 0,0 0,0 0,0.01 -0.01,0.02 -0.02,0.04 -0.03,0.05 0,0 0,0 0,0 -0.02,0.06 -0.01,0.09 0.02,0.1 0.14,0.08 0.29,0.16 0.43,0.23 0.01,0.02 0.02,0.04 0.02,0.06 0,0.01 0.01,0.03 0.01,0.05 0,0.03 0.01,0.05 0.01,0.08 0,0.02 0,0.04 0,0.06 0,0.03 0,0.07 0,0.1 0,0.03 -0.01,0.05 -0.01,0.08 -0.01,0.04 -0.01,0.08 -0.02,0.13 -0.01,0.03 -0.01,0.07 -0.02,0.1 -0.01,0.05 -0.03,0.1 -0.04,0.16 -0.01,0.04 -0.02,0.08 -0.04,0.12 -0.02,0.06 -0.04,0.13 -0.07,0.2 -0.02,0.05 -0.03,0.09 -0.05,0.14 -0.04,0.11 -0.09,0.23 -0.14,0.36 -0.01,0.02 -0.02,0.04 -0.02,0.06 -0.07,0.15 -0.14,0.32 -0.22,0.5 -0.02,0.05 -0.05,0.11 -0.08,0.16 -0.07,0.14 -0.14,0.28 -0.21,0.43 -0.03,0.07 -0.07,0.14 -0.11,0.21 -0.08,0.15 -0.16,0.31 -0.25,0.48 -0.04,0.08 -0.08,0.15 -0.13,0.23 -0.1,0.19 -0.21,0.38 -0.32,0.59 -0.05,0.08 -0.09,0.16 -0.14,0.25 -0.17,0.29 -0.34,0.59 -0.53,0.92 l 4.56,2.48 c 0.19,-0.33 0.37,-0.63 0.53,-0.92 0.05,-0.09 0.1,-0.17 0.14,-0.26 0.11,-0.19 0.21,-0.37 0.3,-0.55 0.02,-0.04 0.05,-0.09 0.08,-0.14 0.03,-0.06 0.05,-0.1 0.08,-0.15 0.08,-0.15 0.16,-0.29 0.23,-0.43 0.04,-0.08 0.08,-0.16 0.12,-0.23 0.08,-0.15 0.14,-0.29 0.21,-0.43 0.02,-0.05 0.05,-0.11 0.08,-0.16 0.08,-0.18 0.16,-0.35 0.23,-0.5 0.01,-0.02 0.01,-0.04 0.02,-0.06 0.05,-0.13 0.1,-0.25 0.14,-0.36 0,-0.01 0.01,-0.03 0.02,-0.04 0.01,-0.04 0.02,-0.07 0.04,-0.1 0.02,-0.07 0.05,-0.13 0.06,-0.19 0.01,-0.04 0.02,-0.08 0.04,-0.13 0.02,-0.05 0.03,-0.11 0.04,-0.15 0.01,-0.04 0.02,-0.07 0.02,-0.11 0.01,-0.04 0.02,-0.08 0.02,-0.12 0,-0.03 0.01,-0.06 0.01,-0.09 0,-0.04 0,-0.07 0,-0.1 0,-0.02 0,-0.05 0,-0.07 0,-0.03 -0.01,-0.05 -0.01,-0.08 0,-0.02 -0.01,-0.04 -0.01,-0.05 -0.01,-0.02 -0.01,-0.04 -0.02,-0.06 -0.01,-0.01 -0.01,-0.03 -0.02,-0.04 -0.01,-0.02 -0.02,-0.03 -0.04,-0.05 -0.01,-0.01 -0.01,-0.02 -0.02,-0.02 -0.02,-0.02 -0.04,-0.03 -0.06,-0.05 -0.11,-0.06 -0.21,-0.12 -0.32,-0.17 0,-0.01 -0.01,-0.01 0,-0.02 0.01,-0.02 0.02,-0.04 0.03,-0.06 0.01,-0.02 0.02,-0.04 0.04,-0.06 0.01,-0.01 0.01,-0.02 0.02,-0.03 0.03,-0.04 0.07,-0.1 0.12,-0.16 0.01,-0.01 0.03,-0.03 0.04,-0.05 0.05,-0.05 0.1,-0.12 0.16,-0.19 0.01,-0.02 0.02,-0.03 0.04,-0.04 0.03,-0.04 0.08,-0.08 0.11,-0.13 0.03,-0.03 0.05,-0.06 0.08,-0.09 0.04,-0.04 0.08,-0.09 0.12,-0.13 0.04,-0.05 0.08,-0.09 0.13,-0.14 0.02,-0.02 0.04,-0.04 0.06,-0.06 0.52,-0.56 1.3,-1.38 2.45,-2.58 0.35,-0.37 0.7,-0.73 1.06,-1.08 0.32,-0.31 0.64,-0.61 0.96,-0.9 0.04,-0.04 0.08,-0.08 0.12,-0.12 0.02,-0.01 0.03,-0.03 0.05,-0.04 0.52,-0.47 1.06,-0.91 1.59,-1.34 0.11,-0.09 0.22,-0.18 0.34,-0.27 0.53,-0.42 1.07,-0.82 1.62,-1.2 0.18,-0.12 0.35,-0.24 0.53,-0.36 0.2,-0.13 0.39,-0.27 0.59,-0.39 0.19,-0.12 0.39,-0.24 0.59,-0.36 0.2,-0.12 0.4,-0.24 0.6,-0.36 0.2,-0.11 0.39,-0.23 0.59,-0.34 0.2,-0.11 0.4,-0.23 0.6,-0.33 0.2,-0.1 0.39,-0.2 0.59,-0.3 0.2,-0.1 0.41,-0.21 0.61,-0.3 0.13,-0.06 0.27,-0.12 0.4,-0.18 0.6,-0.28 1.2,-0.54 1.8,-0.77 v 0 c 0.6,-0.23 1.21,-0.44 1.81,-0.63 0.11,-0.03 0.22,-0.07 0.33,-0.1 0.58,-0.17 1.16,-0.33 1.74,-0.46 0.11,-0.03 0.22,-0.05 0.33,-0.07 0.6,-0.13 1.2,-0.24 1.79,-0.33 0.64,-0.09 1.28,-0.14 1.91,-0.18 0.19,-0.01 0.38,-0.01 0.57,-0.02 0.47,-0.01 0.92,-0.02 1.37,0 z"
     class="st2" /><path
     style="fill:#cacfd2"
     id="path230"
     d="m 256.4,60.63 c -0.55,0.08 -1.1,0.17 -1.66,0.27 l -0.39,211.42 4.56,2.48 0.39,-211.42 c 0.56,-0.1 1.11,-0.19 1.66,-0.27 7.38,-1.04 13.55,0.63 18.85,3.51 -1.52,-0.83 -2.7,-1.65 -4.21,-2.47 -5.31,-2.89 -11.82,-4.56 -19.2,-3.52 z"
     class="st2" /></g><g
   id="g236"
   style="fill:#2196f3;fill-opacity:1"
   transform="translate(-122.92994,-58.907044)"><path
     style="fill:#2196f3;fill-opacity:1"
     id="path234"
     d="m 260.95,63.11 c 23.86,-3.35 38.66,19.48 32.57,44.64 -2.17,8.96 6.5,11.14 3.25,21.52 6.13,-10.41 -2.3,-1.54 5.32,-9.54 5.6,-5.88 12.32,-9.36 18.65,-10.25 11.04,-1.55 20.87,4.78 21.36,19.93 0.11,3.34 -0.15,6.9 -0.7,10.6 4.63,-7.26 6.81,-9.66 13.12,-14.13 3.25,-2.3 6.49,-3.58 9.61,-4.01 13.1,-1.84 23.78,11.21 21.69,25.78 -2.12,14.77 -8.92,26.82 -26.23,41.81 L 258.9,274.8 259.29,63.38 c 0.56,-0.11 1.11,-0.19 1.66,-0.27 z"
     class="st16" /></g><g
   class="st1"
   id="g260"
   style="enable-background:new"
   transform="translate(-122.92994,-58.907044)"><g
     id="g254"><path
       class="st2"
       d="m 158.98,140.52 c -7.31,-0.95 -13.85,0.32 -19.08,3.47 -1.39,0.84 -2.79,1.68 -4.18,2.52 5.23,-3.15 11.77,-4.42 19.08,-3.47 3.53,0.46 7.25,1.43 11.07,2.97 3.1,1.24 6.11,2.79 9,4.57 l 4.18,-2.52 c -2.88,-1.78 -5.9,-3.33 -9,-4.57 -3.83,-1.54 -7.54,-2.52 -11.07,-2.97 z"
       id="path242"
       style="fill:#cacfd2" /><path
       class="st2"
       d="m 168.76,203.45 c -0.99,-0.13 -2.02,-0.39 -3.09,-0.81 -7.17,-2.78 -12.97,-11.18 -12.95,-18.76 0.01,-3.95 1.59,-6.9 4.13,-8.43 -1.39,0.84 -2.79,1.68 -4.18,2.52 -2.53,1.52 -4.12,4.47 -4.13,8.43 -0.01,7.58 5.79,15.98 12.95,18.76 1.06,0.41 2.1,0.68 3.09,0.81 2.2,0.29 4.18,-0.11 5.78,-1.07 1.39,-0.84 2.79,-1.68 4.18,-2.52 -1.6,0.96 -3.58,1.36 -5.78,1.07 z"
       id="path244"
       style="fill:#cacfd2" /><path
       class="st2"
       d="m 332.32,258.18 c -9.49,-1.23 -17.16,-10.36 -17.14,-20.39 0.01,-6.19 2.95,-11.29 7.44,-13.99 -0.42,0.25 -0.84,0.5 -1.25,0.75 -0.13,0.08 -0.29,0.18 -0.42,0.25 -0.77,0.46 -1.53,0.92 -2.3,1.38 -0.06,0.04 -0.15,0.09 -0.21,0.13 -4.48,2.7 -7.43,7.79 -7.44,13.99 -0.02,10.03 7.65,19.16 17.14,20.39 3.62,0.47 6.99,-0.28 9.76,-1.95 0.28,-0.17 0.56,-0.34 0.84,-0.5 0.56,-0.33 1.12,-0.67 1.67,-1.01 0.56,-0.33 1.11,-0.67 1.67,-1.01 -2.77,1.68 -6.13,2.43 -9.76,1.96 z"
       id="path246"
       style="fill:#cacfd2" /><path
       class="st2"
       d="m 409.55,310.97 c -5.3,-0.69 -9.6,-6.33 -9.59,-12.6 0.01,-4.08 1.84,-7.42 4.58,-9.06 -1.39,0.84 -2.79,1.68 -4.18,2.52 -2.74,1.65 -4.57,4.99 -4.57,9.06 -0.01,6.27 4.29,11.91 9.59,12.6 1.86,0.24 3.59,-0.16 5.06,-1.04 1.32,-0.8 2.65,-1.59 3.97,-2.39 0.06,-0.04 0.14,-0.09 0.21,-0.13 -1.47,0.88 -3.21,1.28 -5.07,1.04 z"
       id="path248"
       style="fill:#cacfd2" /><path
       class="st2"
       d="m 410.67,263.9 c -4.6,-2.28 -9.01,-3.64 -13.1,-4.17 -2.4,-0.31 -4.68,-0.34 -6.84,-0.09 0.81,-3.1 1.26,-6.54 1.26,-10.29 0.05,-26.72 -21.26,-58.95 -47.6,-71.98 -5.66,-2.8 -11.08,-4.48 -16.12,-5.13 -4.07,-0.53 -7.88,-0.38 -11.35,0.39 4.32,-6.12 6.79,-14.32 6.81,-24.32 0.06,-31.47 -24.08,-69.16 -54.63,-86.11 -4.07,-1.46 -8.02,-2.41 -11.82,-2.9 -9.6,-1.24 -18.22,0.49 -25.19,4.69 -1.39,0.84 -2.79,1.68 -4.18,2.52 6.98,-4.2 15.59,-5.93 25.19,-4.69 3.8,0.49 7.75,1.45 11.82,2.91 30.55,16.95 54.69,54.64 54.63,86.11 -0.02,10 -2.49,18.19 -6.81,24.32 3.48,-0.77 7.29,-0.91 11.36,-0.39 5.04,0.65 10.46,2.33 16.12,5.13 26.34,13.03 47.65,45.25 47.6,71.98 -0.01,3.75 -0.45,7.19 -1.26,10.29 2.15,-0.24 4.44,-0.22 6.84,0.09 4.09,0.53 8.5,1.89 13.1,4.17 21.38,10.57 30.45,27.6 30.4,49.3 -0.02,9.78 -4.56,17.15 -11.5,21.32 0.63,-0.38 1.25,-0.75 1.88,-1.13 0.21,-0.13 0.42,-0.25 0.63,-0.38 0.56,-0.33 1.12,-0.67 1.67,-1.01 6.94,-4.18 11.48,-11.54 11.5,-21.32 0.04,-21.7 -9.03,-38.74 -30.41,-49.31 z"
       id="path250"
       style="fill:#cacfd2" /><path
       class="st2"
       d="m 201.54,97.79 c -7.53,-0.98 -14.58,0.25 -20,3.51 -1.39,0.84 -2.79,1.68 -4.18,2.52 5.42,-3.26 12.47,-4.49 20,-3.51 3.57,0.46 7.25,1.42 10.93,2.89 0.47,0.19 0.93,0.4 1.4,0.6 l 4.18,-2.52 c -0.47,-0.2 -0.92,-0.41 -1.4,-0.6 -3.68,-1.47 -7.36,-2.43 -10.93,-2.89 z"
       id="path252"
       style="fill:#cacfd2" /></g><g
     id="g258"><path
       class="st17"
       d="m 406.49,266.42 c 21.38,10.57 30.45,27.6 30.4,49.3 -0.03,17.32 -14.25,27.08 -30.86,24.93 -4.19,-0.54 -8.53,-1.84 -12.84,-3.97 L 165.71,232.99 c -23.67,-9.47 -42.82,-36.62 -42.78,-60.65 0.04,-20.14 13.56,-31.69 31.87,-29.32 3.53,0.46 7.25,1.43 11.07,2.97 3.1,1.24 6.11,2.79 9,4.57 -5.08,-8.52 -8.11,-17.92 -8.1,-26.86 0.03,-17.17 14.14,-25.54 30.59,-23.4 3.57,0.46 7.25,1.42 10.93,2.89 0.47,0.19 0.93,0.4 1.4,0.6 0.04,-28.2 18.36,-45.22 43.42,-41.98 3.8,0.49 7.75,1.45 11.82,2.91 30.55,16.95 54.69,54.64 54.63,86.11 -0.02,10 -2.49,18.19 -6.81,24.32 3.48,-0.77 7.29,-0.91 11.36,-0.39 5.04,0.65 10.46,2.33 16.12,5.13 26.34,13.03 47.65,45.25 47.6,71.98 -0.01,3.75 -0.45,7.19 -1.26,10.29 2.15,-0.24 4.44,-0.22 6.84,0.09 4.07,0.53 8.48,1.89 13.08,4.17 z m -78.35,-5.72 c 9.48,1.23 17.18,-5.91 17.2,-15.94 0.02,-10.03 -7.65,-19.16 -17.13,-20.39 -9.49,-1.23 -17.19,5.91 -17.21,15.94 -0.02,10.03 7.65,19.16 17.14,20.39 M 164.58,205.97 c 5.68,0.74 9.89,-3.05 9.91,-9.5 0.01,-7.57 -5.78,-15.98 -12.94,-18.76 -1.06,-0.41 -2.1,-0.68 -3.09,-0.81 -5.68,-0.74 -9.9,3.04 -9.91,9.5 -0.01,7.58 5.79,15.98 12.95,18.76 1.05,0.42 2.09,0.68 3.08,0.81 m 240.79,107.51 c 5.31,0.69 9.62,-3.84 9.64,-10.11 0.01,-6.27 -4.28,-11.91 -9.59,-12.6 -5.31,-0.69 -9.62,3.84 -9.64,10.11 -0.01,6.27 4.29,11.92 9.59,12.6"
       id="path256"
       style="fill:#82d0f5" /></g></g><path
   class="st2"
   d="m 205.62006,200.04302 c -0.01,-0.15 -0.02,-0.29 -0.03,-0.44 -0.01,-0.14 -0.02,-0.28 -0.03,-0.42 -0.01,-0.12 -0.01,-0.25 -0.03,-0.37 -0.04,-0.36 -0.09,-0.72 -0.14,-1.07 -0.01,-0.07 -0.02,-0.15 -0.03,-0.22 0,-0.02 0,-0.03 -0.01,-0.05 -0.08,-0.51 -0.18,-1.03 -0.3,-1.53 -0.01,-0.03 -0.02,-0.06 -0.02,-0.09 -0.09,-0.38 -0.2,-0.75 -0.31,-1.12 -0.06,-0.21 -0.11,-0.42 -0.17,-0.63 -0.01,-0.02 -0.01,-0.04 -0.02,-0.05 -0.03,-0.1 -0.07,-0.19 -0.1,-0.29 -0.15,-0.44 -0.3,-0.87 -0.47,-1.3 -0.07,-0.18 -0.15,-0.35 -0.22,-0.53 -0.09,-0.21 -0.17,-0.42 -0.27,-0.63 -0.07,-0.14 -0.14,-0.28 -0.21,-0.42 -0.08,-0.16 -0.16,-0.32 -0.24,-0.48 -0.19,-0.37 -0.38,-0.73 -0.59,-1.08 -0.07,-0.13 -0.14,-0.25 -0.21,-0.38 -0.28,-0.46 -0.57,-0.92 -0.87,-1.36 -0.07,-0.1 -0.15,-0.2 -0.22,-0.3 -0.18,-0.25 -0.36,-0.5 -0.54,-0.75 -0.06,-0.08 -0.13,-0.16 -0.2,-0.24 -0.12,-0.16 -0.26,-0.31 -0.38,-0.47 -0.23,-0.27 -0.46,-0.54 -0.7,-0.8 -0.13,-0.14 -0.27,-0.29 -0.4,-0.43 -0.08,-0.08 -0.15,-0.17 -0.23,-0.25 -0.13,-0.13 -0.28,-0.25 -0.41,-0.37 -0.22,-0.21 -0.45,-0.42 -0.68,-0.62 -0.08,-0.07 -0.15,-0.15 -0.23,-0.21 -0.18,-0.15 -0.37,-0.2901 -0.56,-0.4301 -0.14,-0.11 -0.27,-0.22 -0.41,-0.32 -0.05,-0.04 -0.1,-0.08 -0.16,-0.12 -0.33,-0.24 -0.67,-0.47 -1.02,-0.68 v 0 c -0.02,-0.01 -0.04,-0.02 -0.06,-0.04 -0.06,-0.04 -0.12,-0.07 -0.18,-0.11 -0.23,-0.14 -0.46,-0.27996 -0.7,-0.40996 -0.16,-0.09 -0.33,-0.17 -0.49,-0.25 -0.07,-0.04 -0.15,-0.08 -0.22,-0.11 -0.05,-0.03 -0.11,-0.06 -0.16,-0.08 -0.28,-0.13 -0.57,-0.26 -0.86,-0.37 -0.1,-0.04 -0.2,-0.07 -0.3,-0.11 -0.07,-0.03 -0.15,-0.06 -0.22,-0.08 -0.1,-0.04 -0.21,-0.08 -0.31,-0.12 -0.27,-0.09 -0.54,-0.18 -0.82,-0.25 -0.11,-0.03 -0.21,-0.06 -0.32,-0.08 -0.17,-0.04 -0.34,-0.08 -0.51,-0.12 -0.09,-0.02 -0.18,-0.03 -0.26,-0.05 -0.11,-0.02 -0.23,-0.04 -0.34,-0.06 -0.07,-0.01 -0.14,-0.03 -0.21,-0.04 -0.19,-0.03 -0.38,-0.05 -0.56,-0.08 -0.09,-0.01 -0.17,-0.02 -0.26,-0.03 -0.28,-0.03 -0.55,-0.04 -0.83,-0.05 -0.09,0 -0.18,0 -0.27,0 -0.09,0 -0.17,0 -0.26,0 -0.11,0 -0.23,0 -0.34,0 -0.31,0.01 -0.62,0.04 -0.93,0.08 -0.01,0 -0.02,0 -0.02,0 -0.02,0 -0.04,0.01 -0.05,0.01 -0.32,0.04 -0.64,0.1 -0.95,0.16 -0.07,0.01 -0.13,0.04 -0.2,0.06 -0.19,0.05 -0.37,0.1 -0.56,0.16 -0.16,0.05 -0.32,0.08 -0.48,0.13 -0.15,0.05 -0.3,0.11 -0.45,0.17 l -4.48,1.74996 c 0.3,-0.12 0.62,-0.21 0.94,-0.3 0.18,-0.05 0.37,-0.11 0.56,-0.14996 0.36,-0.09 0.73,-0.16 1.11,-0.21 0.03,0 0.07,-0.01 0.1,-0.02 0.42,-0.05 0.85,-0.08 1.28,-0.09 0.09,0 0.17,0 0.26,0 0.45,0 0.9,0.02 1.36,0.07 0.26,0.03 0.52,0.07 0.78,0.11 0.11,0.02 0.23,0.04 0.34,0.06 0.26,0.05 0.51,0.1 0.77,0.16996 0.49,0.12 0.98,0.28 1.46,0.46 0.07,0.02 0.14,0.05 0.21,0.08 0.45,0.17 0.89,0.36 1.33,0.57 0.08,0.04 0.15,0.08 0.22,0.11 0.41,0.21 0.82,0.43 1.21,0.6701 0.05,0.03 0.1,0.06 0.15,0.09 0.42,0.26 0.84,0.55 1.24,0.85 0.14,0.1 0.28,0.21 0.41,0.32 0.27,0.21 0.53,0.42 0.79,0.65 0.23,0.2 0.46,0.41 0.68,0.62 0.22,0.21 0.43,0.41 0.64,0.62 0.13,0.14 0.27,0.28 0.4,0.42 0.24,0.26 0.48,0.54 0.72,0.81 0.12,0.15 0.24,0.29 0.36,0.44 0.27,0.34 0.53,0.69 0.79,1.04 0.06,0.08 0.12,0.16 0.18,0.25 0.31,0.45 0.6,0.91 0.88,1.38 0.07,0.11 0.13,0.23 0.19,0.34 0.21,0.37 0.41,0.74 0.61,1.11 0.08,0.16 0.16,0.31 0.23,0.47 0.17,0.35 0.33,0.7 0.48,1.06 0.07,0.17 0.15,0.34 0.22,0.52 0.17,0.44 0.34,0.88 0.48,1.33 0.03,0.08 0.06,0.17 0.09,0.25 0.07,0.24 0.13,0.48 0.2,0.72 0.1,0.36 0.21,0.73 0.3,1.09 0.13,0.55 0.24,1.11 0.33,1.68 0.01,0.07 0.02,0.15 0.03,0.22 0.07,0.48 0.13,0.96 0.17,1.45 0.01,0.14 0.02,0.28 0.03,0.41 0.03,0.54 0.06,1.08 0.05,1.62 0,0.39 -0.02,0.77 -0.05,1.15 -0.01,0.12 -0.02,0.23 -0.03,0.35 -0.02,0.25 -0.05,0.51 -0.08,0.76 -0.02,0.13 -0.04,0.26 -0.05,0.39 -0.04,0.24 -0.07,0.47 -0.12,0.7 -0.02,0.12 -0.05,0.25 -0.07,0.37 -0.05,0.25 -0.11,0.5 -0.17,0.74 -0.02,0.09 -0.04,0.19 -0.07,0.28 -0.09,0.33 -0.19,0.66 -0.3,0.97 -0.03,0.08 -0.06,0.15 -0.08,0.23 -0.09,0.24 -0.17,0.47 -0.27,0.7 -0.06,0.13 -0.12,0.26 -0.18,0.39 -0.08,0.17 -0.16,0.35 -0.24,0.52 -0.08,0.15 -0.16,0.3 -0.24,0.45 -0.08,0.15 -0.16,0.29 -0.24,0.44 -0.12,0.19 -0.24,0.38 -0.36,0.57 -0.07,0.11 -0.14,0.22 -0.22,0.33 -0.24,0.34 -0.5,0.67 -0.77,0.98 -0.06,0.07 -0.12,0.14 -0.19,0.21 -0.23,0.25 -0.46,0.49 -0.71,0.72 -0.08,0.07 -0.16,0.15 -0.24,0.22 -0.3,0.27 -0.62,0.53 -0.95,0.76 -0.05,0.04 -0.11,0.07 -0.16,0.11 -0.29,0.2 -0.58,0.38 -0.89,0.55 -0.1,0.05 -0.19,0.11 -0.29,0.16 -0.36,0.19 -0.73,0.37 -1.11,0.51 l 4.48,-1.75 c 0.38,-0.15 0.75,-0.33 1.11,-0.51 0.1,-0.05 0.19,-0.1 0.29,-0.16 0.3,-0.17 0.6,-0.36 0.89,-0.55 0.05,-0.04 0.11,-0.07 0.16,-0.11 0.33,-0.24 0.64,-0.49 0.95,-0.76 0.08,-0.07 0.16,-0.15 0.24,-0.22 0.24,-0.23 0.48,-0.47 0.71,-0.72 0.04,-0.05 0.09,-0.09 0.13,-0.14 0.02,-0.02 0.04,-0.05 0.05,-0.07 0.27,-0.31 0.53,-0.64 0.77,-0.98 0.02,-0.02 0.04,-0.04 0.05,-0.07 0.06,-0.08 0.11,-0.18 0.17,-0.26 0.12,-0.18 0.24,-0.37 0.36,-0.56 0.03,-0.05 0.06,-0.09 0.08,-0.13 0.06,-0.1 0.11,-0.22 0.17,-0.32 0.08,-0.14 0.15,-0.28 0.22,-0.43 0.03,-0.05 0.05,-0.1 0.08,-0.15 0.06,-0.13 0.12,-0.27 0.18,-0.4 0.05,-0.12 0.11,-0.23 0.16,-0.35 0.02,-0.04 0.04,-0.08 0.05,-0.12 0.08,-0.19 0.14,-0.38 0.21,-0.58 0.03,-0.09 0.07,-0.17 0.1,-0.26 0,-0.01 0.01,-0.02 0.01,-0.03 0.1,-0.29 0.19,-0.58 0.27,-0.88 0,-0.02 0.01,-0.04 0.01,-0.05 0.03,-0.09 0.04,-0.19 0.07,-0.28 0.05,-0.18 0.1,-0.37 0.14,-0.55 0.01,-0.06 0.02,-0.12 0.04,-0.18 0.03,-0.12 0.05,-0.25 0.07,-0.37 0.02,-0.12 0.05,-0.24 0.07,-0.37 0.02,-0.11 0.03,-0.22 0.05,-0.33 0.02,-0.13 0.04,-0.26 0.06,-0.39 0.01,-0.08 0.02,-0.15 0.03,-0.23 0.02,-0.17 0.03,-0.35 0.05,-0.53 0.01,-0.12 0.02,-0.23 0.03,-0.35 0,-0.04 0.01,-0.08 0.01,-0.12 0.02,-0.34 0.03,-0.68 0.04,-1.03 0,-0.01 0,-0.02 0,-0.04 -0.03,-0.39 -0.04,-0.77 -0.05,-1.15 z"
   id="path264"
   style="fill:#cacfd2" /><g
   id="g268"
   style="fill:#2196f3;fill-opacity:1"
   transform="translate(-122.92994,-58.907044)"><path
     class="st16"
     d="m 307.1,239.86 c 0.62,0.07 1.25,0.18 1.89,0.35 8.47,2.14 15.23,11.85 15.1,21.67 -0.11,9.09 -6.08,15.1 -13.67,14.25 -0.62,-0.07 -1.24,-0.18 -1.88,-0.34 -8.48,-2.15 -15.23,-11.86 -15.11,-21.68 0.11,-9.08 6.07,-15.09 13.67,-14.25 z"
     id="path266"
     style="fill:#2196f3;fill-opacity:1" /></g><g
   id="g274"
   style="fill:#2196f3;fill-opacity:1"
   transform="translate(-122.92994,-58.907044)"><path
     class="st16"
     d="m 136.37,192.95 c 0.43,0.04 0.86,0.11 1.31,0.22 0.94,0.21 1.91,0.57 2.92,1.05 6.78,3.33 12.25,11.93 12.23,19.19 -0.02,5.68 -3.37,8.88 -8.06,8.42 -0.43,-0.04 -0.86,-0.11 -1.31,-0.21 -0.94,-0.21 -1.91,-0.57 -2.92,-1.05 -6.78,-3.33 -12.25,-11.92 -12.23,-19.2 0.01,-5.69 3.37,-8.88 8.06,-8.42 z"
     id="path272"
     style="fill:#2196f3;fill-opacity:1" /></g><path
   class="st2"
   d="m 33.15006,151.20296 c -0.01,-0.19 -0.03,-0.38 -0.04,-0.57 -0.01,-0.08 -0.01,-0.16 -0.02,-0.24 0,-0.04 0,-0.07 -0.01,-0.11 -0.03,-0.34 -0.08,-0.67 -0.13,-1.01 -0.01,-0.04 -0.02,-0.08 -0.02,-0.11 -0.02,-0.12 -0.05,-0.24 -0.07,-0.36 -0.04,-0.22 -0.08,-0.44 -0.13,-0.66 -0.02,-0.08 -0.04,-0.16 -0.06,-0.25 -0.05,-0.2 -0.1,-0.41 -0.16,-0.61 -0.04,-0.15 -0.07,-0.31 -0.12,-0.46 -0.03,-0.09 -0.06,-0.17 -0.09,-0.26 -0.09,-0.3 -0.19,-0.59 -0.3,-0.88 -0.05,-0.14 -0.09,-0.28 -0.14,-0.42 -0.02,-0.05 -0.05,-0.1 -0.07,-0.15 -0.23,-0.6 -0.49,-1.2 -0.78,-1.79 -0.02,-0.03 -0.03,-0.07 -0.04,-0.1 -0.05,-0.11 -0.12,-0.21 -0.17,-0.31 -0.2,-0.4 -0.41,-0.79 -0.64,-1.17 -0.1,-0.17 -0.2,-0.34 -0.3,-0.51 -0.23,-0.37 -0.46,-0.74 -0.71,-1.1 -0.07,-0.1 -0.13,-0.21 -0.2,-0.31 -0.03,-0.04 -0.07,-0.08 -0.1,-0.12 -0.36,-0.5 -0.73,-1 -1.12,-1.47 -0.06,-0.08 -0.13,-0.14 -0.19,-0.22 -0.34,-0.4 -0.68,-0.78 -1.04,-1.16 -0.06,-0.06 -0.11,-0.13 -0.17,-0.19 -0.09,-0.09 -0.18,-0.17 -0.27,-0.26 -0.24,-0.23 -0.48,-0.46 -0.72,-0.68 -0.16,-0.15 -0.32,-0.29 -0.49,-0.43 -0.25,-0.22 -0.51,-0.42 -0.78,-0.63 -0.11,-0.09 -0.22,-0.19 -0.34,-0.27 -0.05,-0.04 -0.1,-0.07 -0.15,-0.1 -0.34,-0.24 -0.68,-0.47 -1.02,-0.69 -0.09,-0.06 -0.19,-0.13 -0.28,-0.19 -0.02,-0.01 -0.04,-0.02 -0.06,-0.03 -0.08,-0.05 -0.17,-0.09 -0.26,-0.14 -0.25,-0.15 -0.5,-0.3 -0.76,-0.43 -0.09,-0.05 -0.18,-0.09 -0.28,-0.14 -0.24,-0.12 -0.48,-0.23 -0.72,-0.33 -0.23,-0.1 -0.45,-0.18 -0.68,-0.27 -0.04,-0.01 -0.07,-0.03 -0.11,-0.04 -0.02,-0.01 -0.04,-0.02 -0.06,-0.02 -0.24,-0.09 -0.49,-0.16 -0.72,-0.23 -0.21,-0.06 -0.42,-0.11 -0.62,-0.16 -0.01,0 -0.02,0 -0.03,-0.01 -0.21,-0.05 -0.42,-0.09 -0.63,-0.12 -0.19,-0.03 -0.38,-0.06 -0.57,-0.08 -0.03,0 -0.05,0 -0.08,-0.01 -0.16,-0.02 -0.32,-0.03 -0.47,-0.03 -0.06,0 -0.13,0 -0.19,0 -0.06,0 -0.13,0 -0.19,0 -0.05,0 -0.1,0 -0.15,0 -0.14,0 -0.28,0.01 -0.43,0.02 -0.03,0 -0.06,0 -0.09,0 -0.01,0 -0.01,0 -0.02,0 -0.18,0.01 -0.36,0.04 -0.53,0.06 -0.03,0 -0.06,0.01 -0.09,0.02 -0.06,0.01 -0.12,0.02 -0.18,0.03 -0.09,0.02 -0.18,0.03 -0.27,0.05 -0.05,0.01 -0.1,0.03 -0.16,0.04 -0.09,0.02 -0.17,0.04 -0.25,0.07 -0.06,0.02 -0.12,0.03 -0.18,0.05 -0.05,0.02 -0.1,0.04 -0.16,0.06 -0.13,0.05 -0.26,0.1 -0.38,0.15 -0.06,0.02 -0.12,0.04 -0.17,0.07 -0.04,0.02 -0.07,0.04 -0.11,0.06 -0.15,0.07 -0.29,0.15 -0.44,0.24 -0.07,0.04 -0.14,0.08 -0.21,0.12 -0.21,0.13 -0.41,0.27 -0.6,0.43 l -3.2599999,2.66 c 0.19,-0.16 0.39,-0.3 0.6,-0.43 0.07,-0.04 0.14,-0.08 0.21,-0.12 0.14,-0.08 0.29,-0.16 0.44,-0.23 0.09,-0.04 0.18,-0.08 0.28,-0.12 0.12,-0.05 0.25,-0.1 0.3799999,-0.15 0.11,-0.04 0.22,-0.08 0.34,-0.11 0.08,-0.02 0.17,-0.05 0.25,-0.07 0.14,-0.04 0.29,-0.07 0.43,-0.1 0.06,-0.01 0.12,-0.02 0.18,-0.03 0.21,-0.03 0.42,-0.06 0.64,-0.08 0.03,0 0.06,0 0.09,0 0.19,-0.01 0.38,-0.02 0.58,-0.02 0.06,0 0.13,0 0.19,0 0.22,0.01 0.44,0.02 0.67,0.04 0.43,0.04 0.86,0.11 1.31,0.22 0.46,0.1 0.93,0.24 1.4,0.42 0.04,0.01 0.08,0.03 0.11,0.04 0.46,0.17 0.93,0.36 1.4,0.59 0.34,0.17 0.68,0.36 1.02,0.56 0.09,0.05 0.18,0.1 0.28,0.16 0.11,0.07 0.22,0.14 0.33,0.21 0.35,0.22 0.7,0.45 1.03,0.7 0.16,0.12 0.33,0.25 0.49,0.37 0.26,0.2 0.52,0.41 0.78,0.63 0.16,0.14 0.33,0.29 0.49,0.43 0.25,0.22 0.49,0.45 0.72,0.68 0.15,0.15 0.3,0.3 0.45,0.45 0.36,0.37 0.71,0.76 1.04,1.16 0.06,0.07 0.13,0.14 0.19,0.22 0.39,0.47 0.76,0.96 1.12,1.47 0.1,0.15 0.2,0.29 0.3,0.44 0.24,0.36 0.48,0.72 0.7,1.08 0.1,0.17 0.21,0.35 0.31,0.52 0.22,0.39 0.43,0.78 0.63,1.17 0.07,0.14 0.14,0.27 0.21,0.41 0.29,0.59 0.55,1.19 0.78,1.79 0.07,0.19 0.14,0.38 0.21,0.57 0.11,0.29 0.21,0.59 0.3,0.88 0.08,0.24 0.14,0.48 0.21,0.73 0.05,0.2 0.11,0.4 0.16,0.59 0.07,0.31 0.14,0.62 0.2,0.92 0.02,0.12 0.05,0.24 0.07,0.35 0.07,0.42 0.12,0.83 0.16,1.25 0.01,0.07 0.01,0.15 0.02,0.22 0.03,0.41 0.06,0.82 0.05,1.23 0,0.37 -0.02,0.73 -0.05,1.09 -0.01,0.07 -0.01,0.13 -0.02,0.19 -0.03,0.29 -0.07,0.57 -0.11,0.84 -0.01,0.05 -0.02,0.11 -0.03,0.16 -0.06,0.3 -0.13,0.6 -0.21,0.88 -0.02,0.06 -0.04,0.12 -0.06,0.18 -0.07,0.24 -0.15,0.46 -0.24,0.68 -0.02,0.06 -0.04,0.12 -0.07,0.17 -0.11,0.26 -0.23,0.52 -0.36,0.75 -0.05,0.1 -0.11,0.18 -0.17,0.27 -0.09,0.16 -0.19,0.31 -0.29,0.46 -0.12,0.17 -0.25,0.32 -0.38,0.47 -0.06,0.07 -0.12,0.15 -0.19,0.22 -0.2,0.22 -0.41,0.42 -0.64,0.6 l 3.26,-2.66 c 0.23,-0.18 0.44,-0.39 0.64,-0.6 0.07,-0.07 0.12,-0.15 0.19,-0.23 0.13,-0.15 0.26,-0.3 0.38,-0.47 0.01,-0.02 0.03,-0.03 0.04,-0.05 0.09,-0.13 0.17,-0.28 0.25,-0.41 0.05,-0.09 0.11,-0.17 0.17,-0.27 0.01,-0.01 0.01,-0.02 0.02,-0.03 0.11,-0.21 0.21,-0.42 0.31,-0.64 0.01,-0.03 0.02,-0.05 0.03,-0.08 0.02,-0.06 0.04,-0.12 0.07,-0.17 0.05,-0.12 0.1,-0.24 0.14,-0.37 0.03,-0.1 0.06,-0.21 0.09,-0.31 0.02,-0.06 0.04,-0.12 0.06,-0.19 0.01,-0.04 0.03,-0.08 0.04,-0.13 0.06,-0.21 0.11,-0.43 0.15,-0.65 0.01,-0.03 0.01,-0.07 0.02,-0.1 0.01,-0.05 0.02,-0.11 0.03,-0.17 0.02,-0.14 0.05,-0.27 0.07,-0.41 0.02,-0.14 0.03,-0.28 0.04,-0.42 0.01,-0.07 0.01,-0.13 0.02,-0.19 0,-0.04 0.01,-0.08 0.01,-0.11 0.02,-0.25 0.03,-0.51 0.03,-0.77 0,-0.07 0,-0.14 0,-0.21 0.01,-0.23 0,-0.45 -0.01,-0.66 z"
   id="path276"
   style="fill:#cacfd2" /><path
   class="st2"
   d="m 288.47006,245.81302 c -0.01,-0.09 -0.02,-0.19 -0.02,-0.28 0,-0.07 -0.01,-0.14 -0.02,-0.21 -0.01,-0.08 -0.01,-0.16 -0.02,-0.24 -0.03,-0.25 -0.06,-0.51 -0.09,-0.76 0,0 0,-0.01 0,-0.01 0,0 0,0 0,-0.01 -0.04,-0.28 -0.09,-0.56 -0.15,-0.84 -0.01,-0.05 -0.03,-0.1 -0.04,-0.15 -0.03,-0.12 -0.05,-0.23 -0.08,-0.35 -0.04,-0.14 -0.06,-0.29 -0.1,-0.43 -0.02,-0.07 -0.05,-0.14 -0.07,-0.22 -0.05,-0.17 -0.11,-0.35 -0.16,-0.52 -0.04,-0.11 -0.06,-0.22 -0.1,-0.33 -0.02,-0.05 -0.04,-0.1 -0.06,-0.16 -0.13,-0.38 -0.28,-0.75 -0.44,-1.11 -0.02,-0.04 -0.03,-0.08 -0.04,-0.11 0,-0.01 -0.01,-0.02 -0.01,-0.02 -0.16,-0.36 -0.34,-0.71 -0.52,-1.05 -0.06,-0.11 -0.12,-0.21 -0.19,-0.32 -0.13,-0.23 -0.26,-0.46 -0.41,-0.68 -0.09,-0.13 -0.18,-0.26 -0.27,-0.39 -0.13,-0.19 -0.26,-0.37 -0.39,-0.55 -0.1,-0.13 -0.2,-0.26 -0.3,-0.38 -0.14,-0.17 -0.28,-0.33 -0.42,-0.49 -0.06,-0.07 -0.12,-0.14 -0.18,-0.21 -0.05,-0.05 -0.1,-0.09 -0.15,-0.14 -0.15,-0.15 -0.3,-0.3 -0.46,-0.45 -0.07,-0.07 -0.14,-0.14 -0.21,-0.21 -0.04,-0.04 -0.09,-0.07 -0.13,-0.11 -0.08,-0.07 -0.16,-0.14 -0.25,-0.21 -0.08,-0.07 -0.16,-0.14 -0.24,-0.2 -0.09,-0.07 -0.19,-0.14 -0.29,-0.21 -0.05,-0.03 -0.09,-0.07 -0.14,-0.1 -0.03,-0.02 -0.07,-0.05 -0.1,-0.07 -0.16,-0.11 -0.32,-0.21 -0.48,-0.3 -0.04,-0.03 -0.09,-0.05 -0.14,-0.08 -0.03,-0.02 -0.06,-0.04 -0.1,-0.05 -0.07,-0.04 -0.14,-0.08 -0.21,-0.11 -0.13,-0.07 -0.27,-0.13 -0.41,-0.2 -0.04,-0.02 -0.09,-0.04 -0.13,-0.05 -0.03,-0.01 -0.06,-0.03 -0.1,-0.04 -0.06,-0.03 -0.12,-0.05 -0.18,-0.08 -0.13,-0.05 -0.25,-0.1 -0.38,-0.14 -0.08,-0.03 -0.17,-0.05 -0.25,-0.08 -0.04,-0.01 -0.08,-0.02 -0.12,-0.03 -0.12,-0.03 -0.25,-0.06 -0.37,-0.09 -0.12,-0.03 -0.25,-0.05 -0.37,-0.07 -0.03,0 -0.05,-0.01 -0.07,-0.01 -0.1,-0.01 -0.2,-0.03 -0.3,-0.04 -0.12,-0.01 -0.25,-0.02 -0.37,-0.03 -0.09,0 -0.17,0 -0.25,0 -0.02,0 -0.04,0 -0.06,0 -0.02,0 -0.05,0 -0.07,0 -0.14,0 -0.27,0.01 -0.41,0.02 -0.14,0.01 -0.28,0.03 -0.41,0.05 0,0 0,0 0,0 0,0 -0.01,0 -0.01,0 -0.17,0.03 -0.33,0.06 -0.49,0.1 -0.09,0.02 -0.17,0.05 -0.25,0.08 -0.07,0.02 -0.13,0.04 -0.2,0.06 -0.05,0.02 -0.11,0.03 -0.15,0.05 -0.2,0.08 -0.39,0.16 -0.58,0.26 l -4.74,2.44 c 0.24,-0.12 0.48,-0.22 0.73,-0.31 0.07,-0.03 0.14,-0.05 0.22,-0.07 0.24,-0.07 0.48,-0.14 0.74,-0.18 0.01,0 0.02,0 0.03,0 0.28,-0.04 0.57,-0.07 0.87,-0.07 0.02,0 0.05,0 0.07,0 0.3,0 0.6,0.02 0.91,0.07 0.3,0.05 0.62,0.12 0.93,0.21 0.27,0.08 0.54,0.18 0.81,0.29 0.04,0.02 0.07,0.03 0.11,0.04 0.24,0.1 0.48,0.22 0.71,0.35 0.05,0.02 0.09,0.05 0.14,0.08 0.23,0.13 0.46,0.28 0.69,0.43 0.06,0.04 0.11,0.08 0.17,0.12 0.17,0.12 0.34,0.25 0.5,0.38 0.09,0.07 0.18,0.14 0.27,0.22 0.11,0.09 0.21,0.19 0.32,0.29 0.16,0.15 0.33,0.31 0.49,0.48 0.1,0.1 0.19,0.21 0.29,0.31 0.16,0.18 0.31,0.36 0.46,0.54 0.09,0.11 0.18,0.22 0.26,0.33 0.15,0.2 0.3,0.41 0.45,0.62 0.07,0.11 0.15,0.21 0.22,0.32 0.16,0.25 0.31,0.51 0.46,0.77 0.04,0.08 0.09,0.16 0.14,0.24 0.19,0.35 0.37,0.71 0.53,1.07 0.02,0.03 0.03,0.07 0.04,0.1 0.16,0.37 0.31,0.75 0.45,1.14 0.05,0.16 0.11,0.32 0.16,0.48 0.05,0.17 0.11,0.35 0.16,0.53 0.06,0.21 0.12,0.43 0.17,0.64 0.03,0.12 0.06,0.24 0.08,0.36 0.07,0.33 0.13,0.66 0.18,0.99 0,0.01 0,0.02 0,0.02 0.05,0.32 0.08,0.65 0.11,0.97 0.01,0.09 0.01,0.18 0.02,0.27 0.02,0.33 0.04,0.66 0.04,0.99 0,0.47 -0.03,0.92 -0.07,1.35 -0.01,0.05 -0.01,0.1 -0.02,0.15 -0.05,0.39 -0.11,0.78 -0.19,1.14 -0.01,0.05 -0.02,0.11 -0.04,0.16 -0.08,0.37 -0.19,0.72 -0.3,1.06 -0.01,0.04 -0.03,0.08 -0.04,0.12 -0.12,0.34 -0.26,0.65 -0.41,0.96 -0.02,0.05 -0.04,0.1 -0.07,0.14 -0.15,0.29 -0.32,0.56 -0.49,0.82 -0.06,0.08 -0.12,0.16 -0.17,0.24 -0.16,0.22 -0.32,0.42 -0.5,0.61 -0.04,0.04 -0.07,0.08 -0.1,0.11 -0.21,0.22 -0.44,0.42 -0.68,0.6 -0.05,0.04 -0.11,0.08 -0.16,0.12 -0.25,0.18 -0.5,0.34 -0.77,0.48 l 4.74,-2.44 c 0.27,-0.14 0.52,-0.3 0.77,-0.48 0.05,-0.04 0.11,-0.08 0.16,-0.12 0.23,-0.18 0.46,-0.38 0.67,-0.6 0.04,-0.04 0.07,-0.08 0.11,-0.12 0.1,-0.1 0.19,-0.2 0.28,-0.32 0.07,-0.09 0.13,-0.19 0.2,-0.28 0.06,-0.08 0.12,-0.17 0.19,-0.26 0.03,-0.04 0.06,-0.08 0.09,-0.13 0.12,-0.19 0.24,-0.38 0.35,-0.59 0.02,-0.04 0.04,-0.07 0.05,-0.11 0.02,-0.04 0.04,-0.08 0.06,-0.12 0.05,-0.11 0.11,-0.21 0.16,-0.32 0.08,-0.18 0.15,-0.36 0.22,-0.55 0.01,-0.03 0.02,-0.07 0.03,-0.1 0.01,-0.04 0.03,-0.08 0.04,-0.12 0.04,-0.11 0.08,-0.21 0.11,-0.32 0.06,-0.18 0.11,-0.37 0.15,-0.55 0.02,-0.07 0.03,-0.14 0.04,-0.21 0.01,-0.04 0.02,-0.07 0.02,-0.1 0.02,-0.08 0.04,-0.17 0.06,-0.25 0.04,-0.19 0.07,-0.38 0.1,-0.58 0.02,-0.13 0.03,-0.25 0.04,-0.38 0,-0.03 0.01,-0.05 0.01,-0.08 0.01,-0.05 0.01,-0.09 0.02,-0.14 0.02,-0.21 0.03,-0.42 0.04,-0.63 0.01,-0.2 0.02,-0.41 0.02,-0.61 0,-0.02 0,-0.03 0,-0.05 0.02,-0.19 0.01,-0.43 0,-0.66 z"
   id="path280"
   style="fill:#cacfd2" /><g
   id="g284"
   style="fill:#2196f3;fill-opacity:1"
   transform="translate(-122.92994,-58.907044)"><path
     class="st16"
     d="m 397.33,294.32 c 0.3,0.05 0.62,0.12 0.93,0.21 4.67,1.37 8.45,7.36 8.43,13.38 -0.02,5.61 -3.33,9.28 -7.58,8.63 -0.31,-0.05 -0.62,-0.11 -0.93,-0.21 -4.67,-1.37 -8.45,-7.36 -8.43,-13.38 0.03,-5.61 3.34,-9.27 7.58,-8.63 z"
     id="path282"
     style="fill:#2196f3;fill-opacity:1" /></g><g
   style="enable-background:new"
   id="g304"
   class="st1"
   transform="translate(-122.92994,-58.907044)"><defs
     id="defs289"><path
       style="enable-background:new"
       d="m 203.29,282.35 c -1.6,-0.83 -3.19,-1.67 -4.79,-2.5 1.47,0.77 3.14,1.04 4.89,0.79 2.1,-0.3 4.31,-1.34 6.41,-3.16 l 4.79,2.5 c -2.1,1.82 -4.31,2.86 -6.41,3.16 -1.75,0.25 -3.43,-0.02 -4.89,-0.79 z"
       class="st1"
       id="SVGID_15_" /></defs><clipPath
     id="SVGID_16_"><use
       height="100%"
       width="100%"
       y="0"
       x="0"
       id="use291"
       style="overflow:visible"
       xlink:href="#SVGID_15_" /></clipPath><path
     style="fill:#006893"
     id="path294"
     clip-path="url(#SVGID_16_)"
     d="m 203.29,282.35 -4.79,-2.5 c 0.12,0.07 0.25,0.13 0.38,0.18 l 4.79,2.5 c -0.13,-0.05 -0.26,-0.11 -0.38,-0.18"
     class="st18" /><path
     style="fill:#cacfd2"
     id="path296"
     clip-path="url(#SVGID_16_)"
     d="m 203.67,282.54 -4.79,-2.5 c 0.48,0.22 0.98,0.39 1.5,0.5 l 4.79,2.5 c -0.52,-0.12 -1.02,-0.29 -1.5,-0.5"
     class="st19" /><path
     style="fill:#cacfd2"
     id="path298"
     clip-path="url(#SVGID_16_)"
     d="m 205.17,283.04 -4.79,-2.5 c 0.96,0.21 1.97,0.25 3.02,0.1 1.12,-0.16 2.26,-0.53 3.41,-1.11 l 4.79,2.5 c -1.15,0.58 -2.29,0.95 -3.41,1.11 -1.05,0.15 -2.06,0.11 -3.02,-0.1"
     class="st19" /><path
     style="fill:#cacfd2"
     id="path300"
     clip-path="url(#SVGID_16_)"
     d="m 211.59,282.03 -4.79,-2.5 c 0.66,-0.34 1.32,-0.74 1.97,-1.22 l 4.79,2.5 c -0.65,0.48 -1.31,0.88 -1.97,1.22"
     class="st19" /><path
     style="fill:#cacfd2"
     id="path302"
     clip-path="url(#SVGID_16_)"
     d="m 213.56,280.81 -4.79,-2.5 c 0.35,-0.25 0.69,-0.53 1.03,-0.83 l 4.79,2.5 c -0.34,0.3 -0.69,0.57 -1.03,0.83"
     class="st19" /></g><g
   style="enable-background:new"
   id="g324"
   class="st1"
   transform="translate(-122.92994,-58.907044)"><defs
     id="defs307"><path
       style="enable-background:new"
       d="m 211.78,250.5 4.79,2.5 c 1.84,0.96 3.35,2.7 4.29,5.17 2.57,6.79 -0.23,16.56 -6.27,21.82 l -4.79,-2.5 c 6.04,-5.26 8.84,-15.02 6.27,-21.82 -0.94,-2.48 -2.45,-4.21 -4.29,-5.17 z"
       class="st1"
       id="SVGID_17_" /></defs><clipPath
     id="SVGID_18_"><use
       height="100%"
       width="100%"
       y="0"
       x="0"
       id="use309"
       style="overflow:visible"
       xlink:href="#SVGID_17_" /></clipPath><path
     style="fill:#cacfd2"
     id="path312"
     clip-path="url(#SVGID_18_)"
     d="m 214.59,279.98 -4.79,-2.5 c 0.2,-0.18 0.4,-0.36 0.6,-0.54 l 4.79,2.5 c -0.2,0.18 -0.4,0.36 -0.6,0.54"
     class="st20" /><path
     style="fill:#cacfd2"
     id="path314"
     clip-path="url(#SVGID_18_)"
     d="m 215.19,279.43 -4.79,-2.5 c 0.52,-0.5 1.01,-1.02 1.47,-1.58 l 4.79,2.5 c -0.46,0.56 -0.95,1.09 -1.47,1.58"
     class="st20" /><path
     style="fill:#cacfd2"
     id="path316"
     clip-path="url(#SVGID_18_)"
     d="m 216.66,277.85 -4.79,-2.5 c 0.49,-0.59 0.95,-1.21 1.38,-1.85 l 4.79,2.5 c -0.43,0.65 -0.89,1.27 -1.38,1.85"
     class="st20" /><path
     style="fill:#cacfd2"
     id="path318"
     clip-path="url(#SVGID_18_)"
     d="m 218.04,276 -4.79,-2.5 c 0.48,-0.73 0.92,-1.49 1.32,-2.28 l 4.79,2.5 c -0.4,0.79 -0.84,1.55 -1.32,2.28"
     class="st20" /><path
     style="fill:#cacfd2"
     id="path320"
     clip-path="url(#SVGID_18_)"
     d="m 219.36,273.72 -4.79,-2.5 c 0.49,-0.98 0.92,-1.99 1.27,-3.02 l 4.79,2.5 c -0.36,1.04 -0.78,2.05 -1.27,3.02"
     class="st20" /><path
     style="fill:#cacfd2"
     id="path322"
     clip-path="url(#SVGID_18_)"
     d="m 220.62,270.7 -4.79,-2.5 c 1.44,-4.26 1.64,-8.84 0.23,-12.54 -0.94,-2.47 -2.45,-4.21 -4.29,-5.17 l 4.79,2.5 c 1.84,0.96 3.35,2.7 4.29,5.17 1.41,3.7 1.21,8.29 -0.23,12.54"
     class="st20" /></g><g
   style="enable-background:new"
   id="g346"
   class="st1"
   transform="translate(-122.92994,-58.907044)"><defs
     id="defs327"><path
       style="enable-background:new"
       d="m 173.76,334.42 c -1.6,-0.83 -3.19,-1.67 -4.79,-2.5 -7.14,-3.73 -12.08,-13.9 -12.79,-27.38 -1.24,-23.7 11.01,-48.63 27.41,-62.36 2.14,-1.79 4.24,-3.2 6.28,-4.26 l 4.79,2.5 c -2.04,1.06 -4.14,2.47 -6.28,4.26 -16.4,13.73 -28.65,38.66 -27.41,62.36 0.72,13.48 5.65,23.65 12.79,27.38 z"
       class="st1"
       id="SVGID_19_" /></defs><clipPath
     id="SVGID_20_"><use
       height="100%"
       width="100%"
       y="0"
       x="0"
       id="use329"
       style="overflow:visible"
       xlink:href="#SVGID_19_" /></clipPath><path
     style="fill:#cacfd2"
     id="path332"
     clip-path="url(#SVGID_20_)"
     d="m 173.76,334.42 -4.79,-2.5 c -7.14,-3.73 -12.08,-13.9 -12.79,-27.38 -0.48,-9.09 1.03,-18.36 4,-27.11 l 4.79,2.5 c -2.97,8.75 -4.47,18.02 -4,27.11 0.72,13.48 5.65,23.65 12.79,27.38"
     class="st21" /><path
     style="fill:#cacfd2"
     id="path334"
     clip-path="url(#SVGID_20_)"
     d="m 164.97,279.93 -4.79,-2.5 c 1.28,-3.77 2.83,-7.44 4.6,-10.96 l 4.79,2.5 c -1.77,3.52 -3.32,7.19 -4.6,10.96"
     class="st21" /><path
     style="fill:#cacfd2"
     id="path336"
     clip-path="url(#SVGID_20_)"
     d="m 169.57,268.97 -4.79,-2.5 c 1.5,-2.97 3.16,-5.83 4.96,-8.55 l 4.79,2.5 c -1.8,2.72 -3.46,5.58 -4.96,8.55"
     class="st21" /><path
     style="fill:#cacfd2"
     id="path338"
     clip-path="url(#SVGID_20_)"
     d="m 174.53,260.42 -4.79,-2.5 c 1.64,-2.48 3.39,-4.84 5.24,-7.06 l 4.79,2.5 c -1.85,2.22 -3.6,4.58 -5.24,7.06"
     class="st21" /><path
     style="fill:#cacfd2"
     id="path340"
     clip-path="url(#SVGID_20_)"
     d="m 179.77,253.36 -4.79,-2.5 c 1.76,-2.11 3.6,-4.09 5.51,-5.91 l 4.79,2.5 c -1.91,1.83 -3.75,3.8 -5.51,5.91"
     class="st21" /><path
     style="fill:#cacfd2"
     id="path342"
     clip-path="url(#SVGID_20_)"
     d="m 185.28,247.45 -4.79,-2.5 c 1.01,-0.97 2.05,-1.89 3.1,-2.77 0.66,-0.55 1.31,-1.06 1.96,-1.54 l 4.79,2.5 c -0.65,0.48 -1.3,0.99 -1.96,1.54 -1.05,0.88 -2.08,1.8 -3.1,2.77"
     class="st21" /><path
     style="fill:#cacfd2"
     id="path344"
     clip-path="url(#SVGID_20_)"
     d="m 190.34,243.14 -4.79,-2.5 c 1.46,-1.08 2.91,-1.98 4.32,-2.72 l 4.79,2.5 c -1.42,0.74 -2.86,1.64 -4.32,2.72"
     class="st21" /></g><g
   style="enable-background:new"
   id="g360"
   class="st1"
   transform="translate(-122.92994,-58.907044)"><defs
     id="defs349"><path
       style="enable-background:new"
       d="m 240.39,118.76 c -1.6,-0.83 -3.19,-1.67 -4.79,-2.5 0.6,0.31 1.27,0.5 1.98,0.55 0.35,0.02 0.7,0 1.05,-0.04 3.54,-0.5 6.87,-4.46 7.72,-9.43 l 4.79,2.5 c -0.85,4.97 -4.18,8.93 -7.72,9.43 -0.35,0.05 -0.7,0.06 -1.05,0.04 -0.72,-0.04 -1.38,-0.23 -1.98,-0.55 z"
       class="st1"
       id="SVGID_21_" /></defs><use
     height="100%"
     width="100%"
     y="0"
     x="0"
     id="use351"
     style="overflow:visible;fill:#cacfd2"
     xlink:href="#SVGID_21_" /><clipPath
     id="SVGID_22_"><use
       height="100%"
       width="100%"
       y="0"
       x="0"
       id="use353"
       style="overflow:visible"
       xlink:href="#SVGID_21_" /></clipPath><path
     style="fill:#006893"
     id="path356"
     clip-path="url(#SVGID_22_)"
     d="m 240.39,118.76 -4.79,-2.5 c 0.08,0.04 0.16,0.08 0.25,0.12 l 4.79,2.5 c -0.09,-0.03 -0.17,-0.07 -0.25,-0.12"
     class="st22" /><path
     style="fill:#cacfd2"
     id="path358"
     clip-path="url(#SVGID_22_)"
     d="m 240.63,118.88 -4.79,-2.5 c 0.3,0.14 0.62,0.24 0.95,0.32 l 4.79,2.5 c -0.33,-0.07 -0.64,-0.18 -0.95,-0.32"
     class="st23" /></g><path
   style="fill:#cacfd2"
   id="path362"
   d="m 120.02006,38.662956 c 1.6,0.83 3.19,1.67 4.79,2.5 2.69,1.41 4.16,5.3 3.4,9.77 l -4.79,-2.5 c 0.76,-4.47 -0.7,-8.36 -3.4,-9.77 z"
   class="st2" /><g
   style="enable-background:new"
   id="g372"
   class="st1"
   transform="translate(-122.92994,-58.907044)"><defs
     id="defs365"><path
       style="enable-background:new"
       d="m 212.62,162.15 -4.79,-2.5 c -0.01,-0.22 -0.03,-0.44 -0.05,-0.67 l 4.79,2.5 c 0.02,0.24 0.04,0.45 0.05,0.67 z"
       class="st1"
       id="SVGID_23_" /></defs><clipPath
     id="SVGID_24_"><use
       height="100%"
       width="100%"
       y="0"
       x="0"
       id="use367"
       style="overflow:visible"
       xlink:href="#SVGID_23_" /></clipPath><path
     style="fill:#cacfd2"
     id="path370"
     clip-path="url(#SVGID_24_)"
     d="m 212.62,162.15 -4.79,-2.5 c -0.01,-0.22 -0.03,-0.44 -0.05,-0.67 l 4.79,2.5 c 0.02,0.24 0.04,0.45 0.05,0.67"
     class="st24" /></g><g
   style="enable-background:new"
   id="g392"
   class="st1"
   transform="translate(-122.92994,-58.907044)"><defs
     id="defs375"><path
       style="enable-background:new"
       d="m 194.66,240.42 -4.79,-2.5 c -3.86,-3.43 -6.41,-9.74 -6.87,-18.55 -1.09,-20.61 9.6,-47 23.87,-58.95 0.33,-0.27 0.65,-0.52 0.96,-0.78 l 4.79,2.5 c -0.31,0.25 -0.64,0.5 -0.96,0.78 -14.27,11.94 -24.96,38.34 -23.87,58.95 0.46,8.81 3,15.12 6.87,18.55 z"
       class="st1"
       id="SVGID_25_" /></defs><clipPath
     id="SVGID_26_"><use
       height="100%"
       width="100%"
       y="0"
       x="0"
       id="use377"
       style="overflow:visible"
       xlink:href="#SVGID_25_" /></clipPath><path
     style="fill:#cacfd2"
     id="path380"
     clip-path="url(#SVGID_26_)"
     d="m 194.66,240.42 -4.79,-2.5 c -3.86,-3.43 -6.41,-9.74 -6.87,-18.55 -0.46,-8.73 1.19,-18.49 4.33,-27.75 l 4.79,2.5 c -3.14,9.26 -4.79,19.03 -4.33,27.75 0.46,8.81 3,15.12 6.87,18.55"
     class="st25" /><path
     style="fill:#cacfd2"
     id="path382"
     clip-path="url(#SVGID_26_)"
     d="m 192.11,194.12 -4.79,-2.5 c 1.36,-4 2.99,-7.91 4.85,-11.61 l 4.79,2.5 c -1.85,3.7 -3.49,7.61 -4.85,11.61"
     class="st25" /><path
     style="fill:#cacfd2"
     id="path384"
     clip-path="url(#SVGID_26_)"
     d="m 196.97,182.52 -4.79,-2.5 c 1.41,-2.79 2.94,-5.46 4.59,-7.95 l 4.79,2.5 c -1.65,2.49 -3.18,5.16 -4.59,7.95"
     class="st25" /><path
     style="fill:#cacfd2"
     id="path386"
     clip-path="url(#SVGID_26_)"
     d="m 201.56,174.57 -4.79,-2.5 c 1.33,-2.01 2.73,-3.9 4.19,-5.65 l 4.79,2.5 c -1.46,1.75 -2.86,3.64 -4.19,5.65"
     class="st25" /><path
     style="fill:#cacfd2"
     id="path388"
     clip-path="url(#SVGID_26_)"
     d="m 205.75,168.92 -4.79,-2.5 c 1.25,-1.5 2.55,-2.9 3.88,-4.18 l 4.79,2.5 c -1.33,1.27 -2.63,2.67 -3.88,4.18"
     class="st25" /><path
     style="fill:#cacfd2"
     id="path390"
     clip-path="url(#SVGID_26_)"
     d="m 209.63,164.74 -4.79,-2.5 c 0.67,-0.63 1.34,-1.24 2.02,-1.81 0.33,-0.27 0.65,-0.52 0.96,-0.78 l 4.79,2.5 c -0.31,0.25 -0.64,0.5 -0.96,0.78 -0.68,0.57 -1.35,1.17 -2.02,1.81"
     class="st25" /></g><g
   style="enable-background:new"
   id="g408"
   class="st1"
   transform="translate(-122.92994,-58.907044)"><defs
     id="defs395"><path
       style="enable-background:new"
       d="m 212.57,161.49 -4.79,-2.5 C 206.1,127 222.7,86.02 244.84,67.48 l 4.79,2.5 c -22.14,18.54 -38.74,59.51 -37.06,91.51 z"
       class="st1"
       id="SVGID_27_" /></defs><clipPath
     id="SVGID_28_"><use
       height="100%"
       width="100%"
       y="0"
       x="0"
       id="use397"
       style="overflow:visible"
       xlink:href="#SVGID_27_" /></clipPath><g
     id="g404"
     clip-path="url(#SVGID_28_)"
     class="st26"><path
       style="fill:#00658f"
       id="path400"
       d="m 247.74,100.07 -4.79,-2.5 c 2.69,1.41 4.16,5.3 3.4,9.77 -0.13,0.77 -0.32,1.51 -0.56,2.22 v 0 c -0.21,0.63 -0.47,1.24 -0.76,1.81 -0.24,0.47 -0.5,0.91 -0.77,1.34 -0.25,0.38 -0.52,0.74 -0.79,1.07 -0.27,0.32 -0.55,0.62 -0.83,0.89 -0.29,0.28 -0.6,0.54 -0.91,0.77 -0.36,0.27 -0.74,0.5 -1.12,0.69 -0.64,0.33 -1.3,0.54 -1.97,0.64 -0.35,0.05 -0.7,0.06 -1.05,0.04 -0.27,-0.02 -0.53,-0.05 -0.78,-0.11 l 4.79,2.5 c 0.25,0.06 0.51,0.09 0.78,0.11 0.35,0.02 0.7,0 1.05,-0.04 0.67,-0.09 1.33,-0.31 1.97,-0.64 0.38,-0.19 0.76,-0.43 1.12,-0.69 0.31,-0.23 0.62,-0.49 0.91,-0.77 0.29,-0.28 0.57,-0.57 0.83,-0.89 0.28,-0.33 0.54,-0.69 0.79,-1.07 0.28,-0.42 0.54,-0.87 0.77,-1.34 v 0 c 0.29,-0.57 0.54,-1.18 0.76,-1.81 0.24,-0.71 0.43,-1.45 0.56,-2.22 0.76,-4.47 -0.7,-8.36 -3.4,-9.77 z"
       class="st14" /><path
       style="fill:#cacfd2"
       id="path402"
       d="m 222.04,97.88 c -2.89,5.74 -5.43,11.81 -7.54,18.03 -4.87,14.38 -7.44,29.53 -6.73,43.08 l 4.79,2.5 c -0.71,-13.54 1.85,-28.7 6.73,-43.08 2.11,-6.22 4.65,-12.29 7.54,-18.03 2.19,-4.33 4.57,-8.48 7.13,-12.34 l -4.79,-2.5 c -2.55,3.87 -4.94,8.01 -7.13,12.34 z"
       class="st2" /></g><path
     style="fill:#cacfd2"
     id="path406"
     clip-path="url(#SVGID_28_)"
     d="m 255.29,60.76 c -0.58,0.26 -1.16,0.53 -1.74,0.83 -1.97,1.01 -3.99,2.26 -6.03,3.77 -0.89,0.66 -1.79,1.36 -2.69,2.12 -1.06,0.88 -2.1,1.82 -3.13,2.8 -2.07,1.98 -4.08,4.15 -6.03,6.48 -2.27,2.72 -4.44,5.66 -6.5,8.78 l 4.79,2.5 c 2.06,-3.12 4.24,-6.06 6.5,-8.78 1.95,-2.33 3.96,-4.51 6.03,-6.48 1.03,-0.98 2.07,-1.92 3.13,-2.8 0.9,-0.76 1.8,-1.46 2.69,-2.12 2.04,-1.51 4.06,-2.76 6.03,-3.77 0.58,-0.3 1.16,-0.57 1.74,-0.83 z"
     class="st27" /></g><g
   id="g412"
   style="fill:#2196f3;fill-opacity:1"
   transform="translate(-122.92994,-58.907044)"><path
     style="fill:#2196f3;fill-opacity:1"
     id="path410"
     d="m 249.62,69.98 c 3.58,-3 7.09,-5.28 10.46,-6.78 l -1.39,212.16 -65.8,55.1 c -3.78,3.16 -7.44,4.88 -10.86,5.36 -11.42,1.61 -20.09,-10.56 -21.06,-28.79 -1.24,-23.7 11.01,-48.63 27.41,-62.36 2.14,-1.79 4.24,-3.2 6.28,-4.26 -3.86,-3.43 -6.41,-9.74 -6.87,-18.55 -1.09,-20.61 9.6,-47 23.87,-58.95 0.33,-0.27 0.65,-0.52 0.96,-0.78 -0.01,-0.22 -0.03,-0.44 -0.05,-0.67 -1.68,-31.97 14.92,-72.94 37.05,-91.48 z m -35.03,210 c 6.04,-5.26 8.84,-15.02 6.27,-21.82 -1.68,-4.44 -5.23,-6.51 -9.18,-5.96 -2.1,0.3 -4.3,1.33 -6.4,3.16 -6.04,5.26 -8.85,15.04 -6.27,21.83 1.67,4.43 5.23,6.5 9.17,5.95 2.1,-0.3 4.31,-1.34 6.41,-3.16 m 36.55,-170.14 c 0.93,-5.46 -1.47,-10.08 -5.38,-10.31 -0.35,-0.02 -0.7,0 -1.05,0.04 -3.54,0.5 -6.86,4.46 -7.71,9.43 -0.93,5.46 1.47,10.09 5.37,10.31 0.35,0.02 0.7,0 1.05,-0.04 3.54,-0.5 6.87,-4.47 7.72,-9.43"
     class="st16" /></g><path
   style="fill:#cacfd2"
   id="path414"
   d="m 126.69006,11.072956 -4.79,-2.5000003 c 3.58,-3 7.08,-5.22 10.46,-6.71 l 4.79,2.44 c -3.37,1.49 -6.88,3.76 -10.46,6.7700003 z"
   class="st2" /><g
   id="g426"
   transform="translate(-122.92994,-58.907044)"><path
     style="fill:#cacfd2"
     id="path420"
     d="m 243.19,273.76 c 0.28,0.01 0.56,0.03 0.83,0.07 0.04,0.01 0.09,0.02 0.13,0.03 0.25,0.05 0.49,0.11 0.73,0.19 0.04,0.01 0.09,0.03 0.14,0.04 0.28,0.1 0.56,0.22 0.82,0.36 l -4.56,-2.48 c -0.07,-0.04 -0.14,-0.07 -0.21,-0.11 -0.07,-0.04 -0.16,-0.05 -0.23,-0.09 -0.22,-0.1 -0.45,-0.18 -0.68,-0.25 -0.06,-0.02 -0.11,-0.05 -0.17,-0.06 -0.13,-0.03 -0.27,-0.06 -0.4,-0.08 -0.04,-0.01 -0.08,-0.02 -0.12,-0.02 -0.27,-0.04 -0.56,-0.07 -0.84,-0.07 -0.06,0 -0.13,0 -0.19,0 -0.29,0 -0.59,0.02 -0.89,0.06 -0.36,0.05 -0.73,0.13 -1.11,0.24 -0.23,0.07 -0.46,0.15 -0.69,0.23 -0.09,0.03 -0.18,0.08 -0.27,0.11 -0.13,0.06 -0.26,0.11 -0.4,0.17 -0.01,0 -0.02,0.01 -0.02,0.01 -0.26,0.12 -0.52,0.26 -0.79,0.41 -0.06,0.04 -0.12,0.08 -0.19,0.12 -0.2,0.12 -0.4,0.25 -0.6,0.38 -0.03,0.02 -0.05,0.03 -0.08,0.05 -0.08,0.05 -0.15,0.12 -0.23,0.17 -0.14,0.1 -0.28,0.2 -0.42,0.31 -0.11,0.09 -0.22,0.18 -0.34,0.27 -0.13,0.11 -0.26,0.22 -0.4,0.33 -0.04,0.04 -0.09,0.07 -0.13,0.11 -0.04,0.04 -0.08,0.08 -0.12,0.12 -0.35,0.32 -0.69,0.65 -1.03,1.02 -0.12,0.12 -0.23,0.25 -0.34,0.38 -0.15,0.17 -0.29,0.35 -0.44,0.53 -0.08,0.1 -0.17,0.2 -0.25,0.3 -0.27,0.34 -0.54,0.69 -0.79,1.06 -0.01,0.01 -0.02,0.03 -0.03,0.04 -0.1,0.15 -0.19,0.3 -0.29,0.44 -0.18,0.27 -0.36,0.53 -0.52,0.81 -0.1,0.17 -0.19,0.34 -0.29,0.51 -0.13,0.22 -0.26,0.44 -0.38,0.67 -0.02,0.04 -0.04,0.08 -0.06,0.12 -0.27,0.51 -0.53,1.03 -0.76,1.55 -0.03,0.07 -0.06,0.13 -0.08,0.2 -0.21,0.47 -0.4,0.94 -0.58,1.42 -0.02,0.05 -0.04,0.1 -0.06,0.16 -0.04,0.12 -0.08,0.24 -0.12,0.37 -0.13,0.38 -0.26,0.75 -0.37,1.13 -0.06,0.2 -0.12,0.39 -0.17,0.59 -0.1,0.37 -0.2,0.75 -0.28,1.12 -0.04,0.19 -0.09,0.37 -0.13,0.56 -0.09,0.44 -0.17,0.88 -0.23,1.32 -0.02,0.11 -0.04,0.23 -0.06,0.34 -0.08,0.55 -0.13,1.09 -0.16,1.63 -0.01,0.14 -0.01,0.27 -0.01,0.41 -0.02,0.4 -0.03,0.79 -0.02,1.18 0,0.18 0.01,0.36 0.02,0.55 0.02,0.34 0.04,0.68 0.07,1.02 0.02,0.18 0.04,0.36 0.06,0.54 0.05,0.34 0.11,0.67 0.18,1 0.03,0.15 0.06,0.31 0.09,0.46 0.11,0.47 0.24,0.92 0.4,1.36 0.74,2.01 1.89,3.41 3.3,4.17 1.52,0.83 3.04,1.65 4.56,2.48 -1.41,-0.76 -2.56,-2.16 -3.3,-4.17 -0.16,-0.44 -0.29,-0.89 -0.4,-1.36 -0.04,-0.15 -0.06,-0.31 -0.09,-0.46 -0.07,-0.33 -0.13,-0.66 -0.17,-1 -0.02,-0.18 -0.04,-0.37 -0.06,-0.55 -0.03,-0.33 -0.06,-0.67 -0.07,-1.01 -0.01,-0.18 -0.02,-0.37 -0.02,-0.55 -0.01,-0.39 0,-0.78 0.02,-1.17 0.01,-0.14 0.01,-0.28 0.01,-0.43 0.03,-0.54 0.09,-1.08 0.16,-1.62 0.02,-0.12 0.04,-0.24 0.06,-0.36 0.07,-0.43 0.14,-0.86 0.23,-1.29 0.04,-0.19 0.09,-0.38 0.13,-0.57 0.08,-0.37 0.18,-0.74 0.28,-1.1 0.06,-0.2 0.11,-0.4 0.17,-0.6 0.11,-0.37 0.24,-0.74 0.36,-1.11 0.06,-0.18 0.12,-0.37 0.19,-0.55 0.17,-0.47 0.36,-0.93 0.56,-1.38 0.03,-0.08 0.06,-0.15 0.1,-0.23 0.24,-0.53 0.49,-1.04 0.76,-1.55 0.14,-0.27 0.29,-0.52 0.44,-0.78 0.1,-0.17 0.19,-0.34 0.29,-0.51 0.18,-0.29 0.36,-0.57 0.55,-0.85 0.09,-0.13 0.17,-0.27 0.26,-0.4 0.04,-0.05 0.08,-0.11 0.12,-0.16 0.39,-0.54 0.8,-1.06 1.22,-1.56 0.17,-0.2 0.34,-0.41 0.51,-0.6 0.34,-0.37 0.69,-0.7 1.04,-1.02 0.08,-0.07 0.16,-0.15 0.25,-0.22 0.13,-0.12 0.27,-0.23 0.4,-0.34 0.11,-0.09 0.22,-0.18 0.33,-0.27 0.13,-0.11 0.27,-0.2 0.4,-0.3 0.11,-0.08 0.22,-0.16 0.33,-0.24 0.2,-0.14 0.4,-0.26 0.6,-0.38 0.06,-0.04 0.12,-0.08 0.18,-0.11 0.26,-0.15 0.52,-0.29 0.78,-0.41 0.15,-0.07 0.3,-0.13 0.45,-0.2 0.08,-0.03 0.16,-0.07 0.24,-0.1 0.23,-0.09 0.46,-0.17 0.69,-0.23 0.37,-0.11 0.74,-0.19 1.11,-0.24 0.3,-0.04 0.59,-0.06 0.88,-0.06 0.08,-0.02 0.14,-0.02 0.21,-0.02 z"
     class="st2" /><g
     id="g424"><path
       style="fill:#82d0f5"
       id="path422"
       d="m 242.1,273.82 c 3.06,-0.43 5.72,1.2 7.05,4.82 2.28,6.21 -0.24,15.94 -5.61,21.74 -1.87,2.02 -3.84,3.29 -5.71,3.84 -0.38,0.11 -0.75,0.19 -1.11,0.24 -3.06,0.43 -5.72,-1.19 -7.05,-4.8 -2.28,-6.21 0.24,-15.95 5.62,-21.76 1.87,-2.01 3.83,-3.29 5.7,-3.84 0.38,-0.11 0.75,-0.19 1.11,-0.24 z"
       class="st17" /></g></g><path
   class="st2"
   d="m 142.40006,47.122956 c 0.13,0.02 0.27,0.04 0.4,0.07 0.05,0.01 0.11,0.03 0.16,0.05 0.18,0.05 0.35,0.11 0.51,0.19 0.08,0.04 0.16,0.07 0.24,0.11 l -4.56,-2.48 c -0.05,-0.02 -0.09,-0.05 -0.14,-0.07 -0.03,-0.01 -0.06,-0.02 -0.09,-0.03 -0.17,-0.08 -0.34,-0.14 -0.52,-0.19 -0.03,-0.01 -0.06,-0.03 -0.1,-0.04 -0.02,-0.01 -0.04,-0.01 -0.07,-0.01 -0.13,-0.03 -0.26,-0.05 -0.39,-0.06 -0.06,-0.01 -0.13,-0.02 -0.19,-0.03 -0.2,-0.01 -0.4,-0.02 -0.61,0 -0.08,0.01 -0.16,0.02 -0.24,0.03 -0.23,0.03 -0.46,0.08 -0.69,0.15 -0.24,0.07 -0.47,0.17 -0.71,0.27 -0.02,0.01 -0.05,0.02 -0.07,0.03 -0.03,0.01 -0.06,0.04 -0.09,0.05 -0.3,0.14 -0.59,0.31 -0.88,0.51 0,0 0,0 -0.01,0 -0.01,0.01 -0.02,0.02 -0.03,0.02 -0.25,0.17 -0.49,0.37 -0.72,0.57 -0.03,0.03 -0.06,0.05 -0.1,0.08 -0.03,0.02 -0.05,0.05 -0.07,0.08 -0.25,0.23 -0.49,0.47 -0.73,0.74 -0.01,0.01 -0.02,0.02 -0.03,0.03 -0.02,0.02 -0.04,0.05 -0.05,0.07 -0.26,0.29 -0.5,0.61 -0.74,0.94 -0.02,0.02 -0.04,0.04 -0.05,0.06 -0.01,0.01 -0.01,0.02 -0.02,0.03 -0.3,0.42 -0.57,0.88 -0.83,1.36 -0.01,0.02 -0.02,0.03 -0.03,0.04 0,0.01 -0.01,0.02 -0.01,0.03 -0.16,0.29 -0.3,0.59 -0.44,0.9 -0.04,0.08 -0.07,0.16 -0.1,0.24 -0.1,0.23 -0.2,0.47 -0.29,0.7 -0.02,0.05 -0.04,0.1 -0.06,0.16 -0.02,0.04 -0.03,0.09 -0.04,0.13 -0.16,0.43 -0.3,0.88 -0.42,1.33 -0.02,0.06 -0.03,0.12 -0.04,0.18 -0.12,0.48 -0.23,0.97 -0.31,1.48 -0.66,4.18 0.49,7.62 2.67,8.8 l 4.56,2.48 c -2.18,-1.19 -3.33,-4.62 -2.67,-8.8 0.08,-0.5 0.18,-0.99 0.31,-1.48 0.02,-0.06 0.03,-0.12 0.04,-0.18 0.12,-0.46 0.26,-0.9 0.42,-1.33 0.03,-0.09 0.07,-0.19 0.1,-0.28 0.09,-0.24 0.19,-0.48 0.29,-0.71 0.03,-0.08 0.07,-0.16 0.1,-0.24 0.14,-0.31 0.29,-0.61 0.45,-0.9 0.01,-0.02 0.03,-0.05 0.04,-0.07 0.26,-0.48 0.54,-0.93 0.83,-1.36 0.02,-0.03 0.05,-0.06 0.07,-0.1 0.24,-0.33 0.48,-0.65 0.74,-0.94 0.03,-0.03 0.05,-0.06 0.08,-0.09 0.24,-0.27 0.48,-0.51 0.73,-0.74 0.06,-0.05 0.11,-0.1 0.17,-0.15 0.23,-0.2 0.47,-0.4 0.71,-0.57 0.02,-0.01 0.03,-0.03 0.05,-0.04 0.29,-0.2 0.58,-0.36 0.87,-0.5 0.06,-0.03 0.12,-0.06 0.17,-0.09 0.23,-0.11 0.47,-0.2 0.71,-0.27 0.23,-0.06 0.46,-0.11 0.7,-0.15 0.08,-0.01 0.16,-0.02 0.24,-0.03 0.21,-0.02 0.41,-0.01 0.61,0 0.06,0 0.11,0.01 0.17,0.02 z"
   id="path428"
   style="fill:#cacfd2" /><g
   id="g432"
   style="fill:#2196f3;fill-opacity:1"
   transform="translate(-122.92994,-58.907044)"><path
     class="st16"
     d="m 264.3,106.03 c 0.08,-0.01 0.16,-0.02 0.24,-0.03 3.48,-0.26 5.61,3.87 4.77,9.24 -0.76,4.88 -3.74,9.1 -6.89,10.03 -0.23,0.06 -0.46,0.11 -0.69,0.15 -0.08,0.01 -0.16,0.02 -0.24,0.03 -3.48,0.27 -5.61,-3.87 -4.76,-9.24 0.76,-4.89 3.72,-9.1 6.87,-10.02 0.24,-0.08 0.47,-0.13 0.7,-0.16 z"
     id="path430"
     style="fill:#2196f3;fill-opacity:1" /></g>

















</svg>
